<svg width="67" height="61" viewBox="0 0 67 61" fill="none" xmlns="http://www.w3.org/2000/svg">
<rect x="14.5" width="38" height="38" rx="19" fill="#F1EDE9"/>
<path d="M33.5 26.5C37.625 26.5 41 23.125 41 19C41 14.875 37.625 11.5 33.5 11.5C29.375 11.5 26 14.875 26 19C26 23.125 29.375 26.5 33.5 26.5Z" stroke="#724A26" stroke-width="1.5" stroke-linecap="round" stroke-linejoin="round"/>
<path d="M30.5 19H36.5" stroke="#724A26" stroke-width="1.5" stroke-linecap="round" stroke-linejoin="round"/>
<path d="M33.5 22V16" stroke="#724A26" stroke-width="1.5" stroke-linecap="round" stroke-linejoin="round"/>
<path d="M0.766766 58L3.97077 49.06H5.36277L8.56677 58H7.30677L6.57477 55.9H2.75877L2.02677 58H0.766766ZM3.13077 54.82H6.20277L4.49877 49.912H4.83477L3.13077 54.82ZM12.2669 58.144C11.6589 58.144 11.1109 57.996 10.6229 57.7C10.1429 57.404 9.76289 57 9.48289 56.488C9.20289 55.976 9.06289 55.404 9.06289 54.772C9.06289 54.124 9.20289 53.548 9.48289 53.044C9.76289 52.532 10.1429 52.128 10.6229 51.832C11.1109 51.536 11.6589 51.388 12.2669 51.388C12.8029 51.388 13.2789 51.504 13.6949 51.736C14.1109 51.96 14.4389 52.264 14.6789 52.648L14.4989 52.924V48.916H15.6269V58H14.5349V56.62L14.6789 56.812C14.4549 57.236 14.1269 57.564 13.6949 57.796C13.2709 58.028 12.7949 58.144 12.2669 58.144ZM12.3629 57.064C12.7709 57.064 13.1349 56.964 13.4549 56.764C13.7749 56.564 14.0269 56.292 14.2109 55.948C14.4029 55.596 14.4989 55.204 14.4989 54.772C14.4989 54.332 14.4029 53.94 14.2109 53.596C14.0269 53.244 13.7749 52.968 13.4549 52.768C13.1349 52.568 12.7709 52.468 12.3629 52.468C11.9629 52.468 11.5989 52.572 11.2709 52.78C10.9509 52.98 10.6989 53.252 10.5149 53.596C10.3309 53.932 10.2389 54.324 10.2389 54.772C10.2389 55.204 10.3309 55.596 10.5149 55.948C10.6989 56.292 10.9509 56.564 11.2709 56.764C11.5909 56.964 11.9549 57.064 12.3629 57.064ZM20.2942 58.144C19.6862 58.144 19.1382 57.996 18.6502 57.7C18.1702 57.404 17.7902 57 17.5102 56.488C17.2302 55.976 17.0902 55.404 17.0902 54.772C17.0902 54.124 17.2302 53.548 17.5102 53.044C17.7902 52.532 18.1702 52.128 18.6502 51.832C19.1382 51.536 19.6862 51.388 20.2942 51.388C20.8302 51.388 21.3062 51.504 21.7222 51.736C22.1382 51.96 22.4662 52.264 22.7062 52.648L22.5262 52.924V48.916H23.6542V58H22.5622V56.62L22.7062 56.812C22.4822 57.236 22.1542 57.564 21.7222 57.796C21.2982 58.028 20.8222 58.144 20.2942 58.144ZM20.3902 57.064C20.7982 57.064 21.1622 56.964 21.4822 56.764C21.8022 56.564 22.0542 56.292 22.2382 55.948C22.4302 55.596 22.5262 55.204 22.5262 54.772C22.5262 54.332 22.4302 53.94 22.2382 53.596C22.0542 53.244 21.8022 52.968 21.4822 52.768C21.1622 52.568 20.7982 52.468 20.3902 52.468C19.9902 52.468 19.6262 52.572 19.2982 52.78C18.9782 52.98 18.7262 53.252 18.5422 53.596C18.3582 53.932 18.2662 54.324 18.2662 54.772C18.2662 55.204 18.3582 55.596 18.5422 55.948C18.7262 56.292 18.9782 56.564 19.2982 56.764C19.6182 56.964 19.9822 57.064 20.3902 57.064ZM27.4558 58V51.532H28.5478V52.852L28.3918 52.648C28.5518 52.24 28.8078 51.928 29.1598 51.712C29.5118 51.496 29.9078 51.388 30.3478 51.388C30.8518 51.388 31.3038 51.528 31.7038 51.808C32.1118 52.088 32.3918 52.456 32.5438 52.912L32.2318 52.924C32.3998 52.42 32.6838 52.04 33.0838 51.784C33.4838 51.52 33.9278 51.388 34.4158 51.388C34.8638 51.388 35.2678 51.492 35.6278 51.7C35.9958 51.908 36.2878 52.196 36.5038 52.564C36.7198 52.932 36.8278 53.348 36.8278 53.812V58H35.6998V54.172C35.6998 53.812 35.6358 53.508 35.5078 53.26C35.3798 53.012 35.2038 52.82 34.9798 52.684C34.7638 52.54 34.5078 52.468 34.2118 52.468C33.9238 52.468 33.6638 52.54 33.4318 52.684C33.2078 52.82 33.0278 53.016 32.8918 53.272C32.7638 53.52 32.6998 53.82 32.6998 54.172V58H31.5718V54.172C31.5718 53.812 31.5078 53.508 31.3798 53.26C31.2518 53.012 31.0758 52.82 30.8518 52.684C30.6358 52.54 30.3798 52.468 30.0838 52.468C29.7958 52.468 29.5358 52.54 29.3038 52.684C29.0798 52.82 28.8998 53.016 28.7638 53.272C28.6358 53.52 28.5718 53.82 28.5718 54.172V58H27.4558ZM41.4848 58.144C40.8608 58.144 40.2968 58 39.7928 57.712C39.2888 57.416 38.8888 57.012 38.5928 56.5C38.2968 55.988 38.1488 55.408 38.1488 54.76C38.1488 54.112 38.2928 53.536 38.5808 53.032C38.8768 52.528 39.2768 52.128 39.7808 51.832C40.2848 51.536 40.8528 51.388 41.4848 51.388C42.1088 51.388 42.6728 51.536 43.1768 51.832C43.6808 52.12 44.0768 52.516 44.3648 53.02C44.6608 53.524 44.8088 54.104 44.8088 54.76C44.8088 55.416 44.6568 56 44.3528 56.512C44.0488 57.016 43.6448 57.416 43.1408 57.712C42.6448 58 42.0928 58.144 41.4848 58.144ZM41.4848 57.064C41.8848 57.064 42.2448 56.964 42.5648 56.764C42.8928 56.564 43.1488 56.288 43.3328 55.936C43.5248 55.584 43.6208 55.192 43.6208 54.76C43.6208 54.32 43.5248 53.932 43.3328 53.596C43.1488 53.252 42.8928 52.98 42.5648 52.78C42.2448 52.572 41.8848 52.468 41.4848 52.468C41.0768 52.468 40.7088 52.572 40.3808 52.78C40.0608 52.98 39.8048 53.252 39.6128 53.596C39.4208 53.932 39.3248 54.32 39.3248 54.76C39.3248 55.192 39.4208 55.584 39.6128 55.936C39.8048 56.288 40.0608 56.564 40.3808 56.764C40.7088 56.964 41.0768 57.064 41.4848 57.064ZM46.2644 58V51.532H47.3564V52.792L47.1764 52.684C47.3364 52.276 47.5924 51.96 47.9444 51.736C48.3044 51.504 48.7244 51.388 49.2044 51.388C49.6684 51.388 50.0804 51.492 50.4404 51.7C50.8084 51.908 51.0964 52.196 51.3044 52.564C51.5204 52.932 51.6284 53.348 51.6284 53.812V58H50.5004V54.172C50.5004 53.812 50.4364 53.508 50.3084 53.26C50.1804 53.012 49.9964 52.82 49.7564 52.684C49.5244 52.54 49.2564 52.468 48.9524 52.468C48.6484 52.468 48.3764 52.54 48.1364 52.684C47.9044 52.82 47.7204 53.016 47.5844 53.272C47.4484 53.52 47.3804 53.82 47.3804 54.172V58H46.2644ZM56.2013 58.144C55.5773 58.144 55.0213 57.996 54.5333 57.7C54.0453 57.404 53.6613 57 53.3813 56.488C53.1013 55.968 52.9613 55.388 52.9613 54.748C52.9613 54.1 53.0973 53.524 53.3693 53.02C53.6493 52.516 54.0253 52.12 54.4973 51.832C54.9773 51.536 55.5133 51.388 56.1053 51.388C56.5853 51.388 57.0093 51.476 57.3773 51.652C57.7533 51.82 58.0693 52.052 58.3253 52.348C58.5893 52.636 58.7893 52.968 58.9253 53.344C59.0693 53.712 59.1413 54.096 59.1413 54.496C59.1413 54.584 59.1333 54.684 59.1173 54.796C59.1093 54.9 59.0973 55 59.0813 55.096H53.7773V54.136H58.4333L57.9053 54.568C57.9773 54.152 57.9373 53.78 57.7853 53.452C57.6333 53.124 57.4093 52.864 57.1133 52.672C56.8173 52.48 56.4813 52.384 56.1053 52.384C55.7293 52.384 55.3853 52.48 55.0733 52.672C54.7613 52.864 54.5173 53.14 54.3413 53.5C54.1733 53.852 54.1053 54.272 54.1373 54.76C54.1053 55.232 54.1773 55.648 54.3533 56.008C54.5373 56.36 54.7933 56.636 55.1213 56.836C55.4573 57.028 55.8213 57.124 56.2133 57.124C56.6453 57.124 57.0093 57.024 57.3053 56.824C57.6013 56.624 57.8413 56.368 58.0253 56.056L58.9613 56.536C58.8333 56.832 58.6333 57.104 58.3613 57.352C58.0973 57.592 57.7813 57.784 57.4133 57.928C57.0533 58.072 56.6493 58.144 56.2013 58.144ZM60.9444 60.64C60.8004 60.64 60.6564 60.628 60.5124 60.604C60.3684 60.588 60.2324 60.552 60.1044 60.496V59.5C60.1924 59.508 60.3004 59.524 60.4284 59.548C60.5644 59.572 60.6964 59.584 60.8244 59.584C61.2004 59.584 61.4844 59.5 61.6764 59.332C61.8764 59.164 62.0644 58.88 62.2404 58.48L62.6484 57.508L62.6244 58.48L59.8644 51.532H61.0764L63.2244 57.052H62.8644L65.0004 51.532H66.2364L63.3204 58.768C63.1844 59.112 63.0084 59.428 62.7924 59.716C62.5844 60.004 62.3284 60.228 62.0244 60.388C61.7204 60.556 61.3604 60.64 60.9444 60.64Z" fill="#724A26"/>
</svg>
