<svg width="124" height="17" viewBox="0 0 124 17" fill="none" xmlns="http://www.w3.org/2000/svg">
<path d="M17.4601 11.3654C17.3596 12.0527 17.0621 12.601 16.6307 12.9868C16.1592 13.4084 15.4946 13.6654 14.6673 13.6654H8.66732C7.10346 13.6654 5.83398 12.3959 5.83398 10.832V6.16536C5.83398 5.36061 6.0753 4.71044 6.47368 4.24304C6.87104 3.77684 7.45136 3.46078 8.18957 3.36814L8.1896 3.36833L8.20335 3.36622C8.34997 3.34366 8.50449 3.33203 8.66732 3.33203H14.6673C14.8303 3.33203 14.9652 3.33857 15.0851 3.35856L15.0971 3.36056L15.1091 3.36197C16.402 3.51344 17.2782 4.35901 17.4607 5.63203H16.614C15.8468 5.63203 15.1243 5.92765 14.6 6.46547C13.9886 7.06383 13.6832 7.90245 13.7558 8.74181L13.7559 8.74249C13.8864 10.2269 15.1813 11.3654 16.694 11.3654H17.4601Z" fill="white" stroke="white"/>
<path d="M15.7524 8.57796L15.7524 8.57795L15.7519 8.57208C15.7269 8.31027 15.826 8.06375 16.0034 7.8906L16.0035 7.89072L16.0124 7.88162C16.1643 7.72563 16.3748 7.63281 16.6141 7.63281H17.9893C18.097 7.63976 18.1675 7.72404 18.1675 7.81281V9.18615C18.1675 9.27492 18.097 9.35919 17.9893 9.36615H16.6941C16.1947 9.36615 15.7877 9.00128 15.7524 8.57796Z" fill="white" stroke="white"/>
<path d="M31.4187 13.5L28.6367 3.815H29.6897L32.0947 12.486H31.8737L34.3437 3.815H35.4487L37.9057 12.486H37.6717L40.0897 3.815H41.1427L38.3607 13.5H37.2557L34.7727 4.79H35.0067L32.5237 13.5H31.4187ZM43.786 13.656C43.344 13.656 42.9497 13.5737 42.603 13.409C42.2564 13.2357 41.9834 13.0017 41.784 12.707C41.5847 12.4123 41.485 12.0743 41.485 11.693C41.485 11.329 41.563 10.9997 41.719 10.705C41.875 10.4017 42.1177 10.146 42.447 9.938C42.7764 9.73 43.1967 9.58267 43.708 9.496L46.438 9.041V9.925L43.942 10.341C43.4394 10.4277 43.0754 10.588 42.85 10.822C42.6334 11.056 42.525 11.3333 42.525 11.654C42.525 11.966 42.6464 12.2303 42.889 12.447C43.1404 12.6637 43.461 12.772 43.851 12.772C44.3277 12.772 44.7437 12.6723 45.099 12.473C45.4544 12.265 45.7317 11.9877 45.931 11.641C46.1304 11.2943 46.23 10.9087 46.23 10.484V8.716C46.23 8.3 46.0784 7.962 45.775 7.702C45.4717 7.442 45.0774 7.312 44.592 7.312C44.1674 7.312 43.7947 7.42033 43.474 7.637C43.1534 7.845 42.915 8.118 42.759 8.456L41.875 7.975C42.005 7.68033 42.2087 7.41167 42.486 7.169C42.772 6.92633 43.097 6.73567 43.461 6.597C43.825 6.44967 44.202 6.376 44.592 6.376C45.1034 6.376 45.554 6.47567 45.944 6.675C46.3427 6.87433 46.6504 7.15167 46.867 7.507C47.0924 7.85367 47.205 8.25667 47.205 8.716V13.5H46.23V12.109L46.373 12.252C46.2517 12.512 46.061 12.7503 45.801 12.967C45.5497 13.175 45.2507 13.344 44.904 13.474C44.566 13.5953 44.1934 13.656 43.786 13.656ZM49.2105 13.5V3.659H50.1855V13.5H49.2105ZM52.1812 13.5V3.659H53.1562V13.5H52.1812ZM58.3239 13.656C57.6739 13.656 57.0845 13.5 56.5559 13.188C56.0359 12.8673 55.6242 12.4297 55.3209 11.875C55.0175 11.3203 54.8659 10.692 54.8659 9.99C54.8659 9.288 55.0132 8.66833 55.3079 8.131C55.6025 7.585 56.0012 7.156 56.5039 6.844C57.0152 6.532 57.5872 6.376 58.2199 6.376C58.7225 6.376 59.1689 6.47133 59.5589 6.662C59.9575 6.844 60.2955 7.09533 60.5729 7.416C60.8502 7.728 61.0625 8.08333 61.2099 8.482C61.3572 8.872 61.4309 9.275 61.4309 9.691C61.4309 9.77767 61.4265 9.87733 61.4179 9.99C61.4092 10.094 61.3962 10.2023 61.3789 10.315H55.4899V9.405H60.8199L60.3519 9.795C60.4299 9.31833 60.3735 8.89367 60.1829 8.521C60.0009 8.13967 59.7365 7.84067 59.3899 7.624C59.0432 7.39867 58.6532 7.286 58.2199 7.286C57.7865 7.286 57.3835 7.39867 57.0109 7.624C56.6469 7.84933 56.3609 8.16567 56.1529 8.573C55.9449 8.97167 55.8625 9.44833 55.9059 10.003C55.8625 10.5577 55.9492 11.043 56.1659 11.459C56.3912 11.8663 56.6945 12.1827 57.0759 12.408C57.4659 12.6333 57.8819 12.746 58.3239 12.746C58.8352 12.746 59.2642 12.6247 59.6109 12.382C59.9575 12.1393 60.2392 11.836 60.4559 11.472L61.2879 11.914C61.1492 12.226 60.9369 12.5163 60.6509 12.785C60.3649 13.045 60.0225 13.2573 59.6239 13.422C59.2339 13.578 58.8005 13.656 58.3239 13.656ZM65.8149 13.578C65.1909 13.578 64.7099 13.396 64.3719 13.032C64.0339 12.668 63.8649 12.148 63.8649 11.472V7.507H62.5779V6.532H62.9029C63.1976 6.532 63.4316 6.43667 63.6049 6.246C63.7783 6.04667 63.8649 5.79967 63.8649 5.505V4.92H64.8399V6.532H66.3739V7.507H64.8399V11.472C64.8399 11.706 64.8746 11.914 64.9439 12.096C65.0133 12.2693 65.1303 12.408 65.2949 12.512C65.4683 12.616 65.6979 12.668 65.9839 12.668C66.0533 12.668 66.1356 12.6637 66.2309 12.655C66.3263 12.6463 66.4086 12.6377 66.4779 12.629V13.5C66.3739 13.526 66.2569 13.5433 66.1269 13.552C65.9969 13.5693 65.8929 13.578 65.8149 13.578ZM70.5419 13.5V3.815H74.6109C75.1569 3.815 75.6293 3.919 76.0279 4.127C76.4353 4.32633 76.7473 4.608 76.9639 4.972C77.1893 5.336 77.3019 5.76067 77.3019 6.246C77.3019 6.74867 77.1763 7.195 76.9249 7.585C76.6823 7.96633 76.3313 8.25667 75.8719 8.456L75.8589 8.144C76.2403 8.28267 76.5653 8.47767 76.8339 8.729C77.1113 8.98033 77.3236 9.275 77.4709 9.613C77.6183 9.94233 77.6919 10.2977 77.6919 10.679C77.6919 11.5457 77.4146 12.2347 76.8599 12.746C76.3139 13.2487 75.5686 13.5 74.6239 13.5H70.5419ZM71.5819 12.525H74.6239C75.2393 12.525 75.7289 12.3647 76.0929 12.044C76.4656 11.7147 76.6519 11.264 76.6519 10.692C76.6519 10.1287 76.4656 9.68233 76.0929 9.353C75.7289 9.015 75.2393 8.846 74.6239 8.846H71.5819V12.525ZM71.5819 7.91H74.5329C75.0529 7.91 75.4689 7.75833 75.7809 7.455C76.1016 7.15167 76.2619 6.76167 76.2619 6.285C76.2619 5.79967 76.1016 5.43133 75.7809 5.18C75.4689 4.92 75.0529 4.79 74.5329 4.79H71.5819V7.91ZM81.4276 13.656C80.9856 13.656 80.5913 13.5737 80.2446 13.409C79.898 13.2357 79.625 13.0017 79.4256 12.707C79.2263 12.4123 79.1266 12.0743 79.1266 11.693C79.1266 11.329 79.2046 10.9997 79.3606 10.705C79.5166 10.4017 79.7593 10.146 80.0886 9.938C80.418 9.73 80.8383 9.58267 81.3496 9.496L84.0796 9.041V9.925L81.5836 10.341C81.081 10.4277 80.717 10.588 80.4916 10.822C80.275 11.056 80.1666 11.3333 80.1666 11.654C80.1666 11.966 80.288 12.2303 80.5306 12.447C80.782 12.6637 81.1026 12.772 81.4926 12.772C81.9693 12.772 82.3853 12.6723 82.7406 12.473C83.096 12.265 83.3733 11.9877 83.5726 11.641C83.772 11.2943 83.8716 10.9087 83.8716 10.484V8.716C83.8716 8.3 83.72 7.962 83.4166 7.702C83.1133 7.442 82.719 7.312 82.2336 7.312C81.809 7.312 81.4363 7.42033 81.1156 7.637C80.795 7.845 80.5566 8.118 80.4006 8.456L79.5166 7.975C79.6466 7.68033 79.8503 7.41167 80.1276 7.169C80.4136 6.92633 80.7386 6.73567 81.1026 6.597C81.4666 6.44967 81.8436 6.376 82.2336 6.376C82.745 6.376 83.1956 6.47567 83.5856 6.675C83.9843 6.87433 84.292 7.15167 84.5086 7.507C84.734 7.85367 84.8466 8.25667 84.8466 8.716V13.5H83.8716V12.109L84.0146 12.252C83.8933 12.512 83.7026 12.7503 83.4426 12.967C83.1913 13.175 82.8923 13.344 82.5456 13.474C82.2076 13.5953 81.835 13.656 81.4276 13.656ZM86.8521 13.5V3.659H87.8271V13.5H86.8521ZM91.8378 13.656C91.3958 13.656 91.0014 13.5737 90.6548 13.409C90.3081 13.2357 90.0351 13.0017 89.8358 12.707C89.6364 12.4123 89.5368 12.0743 89.5368 11.693C89.5368 11.329 89.6148 10.9997 89.7708 10.705C89.9268 10.4017 90.1694 10.146 90.4988 9.938C90.8281 9.73 91.2484 9.58267 91.7598 9.496L94.4898 9.041V9.925L91.9938 10.341C91.4911 10.4277 91.1271 10.588 90.9018 10.822C90.6851 11.056 90.5768 11.3333 90.5768 11.654C90.5768 11.966 90.6981 12.2303 90.9408 12.447C91.1921 12.6637 91.5128 12.772 91.9028 12.772C92.3794 12.772 92.7954 12.6723 93.1508 12.473C93.5061 12.265 93.7834 11.9877 93.9828 11.641C94.1821 11.2943 94.2818 10.9087 94.2818 10.484V8.716C94.2818 8.3 94.1301 7.962 93.8268 7.702C93.5234 7.442 93.1291 7.312 92.6438 7.312C92.2191 7.312 91.8464 7.42033 91.5258 7.637C91.2051 7.845 90.9668 8.118 90.8108 8.456L89.9268 7.975C90.0568 7.68033 90.2604 7.41167 90.5378 7.169C90.8238 6.92633 91.1488 6.73567 91.5128 6.597C91.8768 6.44967 92.2538 6.376 92.6438 6.376C93.1551 6.376 93.6058 6.47567 93.9958 6.675C94.3944 6.87433 94.7021 7.15167 94.9188 7.507C95.1441 7.85367 95.2568 8.25667 95.2568 8.716V13.5H94.2818V12.109L94.4248 12.252C94.3034 12.512 94.1128 12.7503 93.8528 12.967C93.6014 13.175 93.3024 13.344 92.9558 13.474C92.6178 13.5953 92.2451 13.656 91.8378 13.656ZM97.2622 13.5V6.532H98.2372V7.884L98.0162 7.832C98.1896 7.38133 98.4712 7.026 98.8612 6.766C99.2599 6.506 99.7192 6.376 100.239 6.376C100.733 6.376 101.175 6.48867 101.565 6.714C101.964 6.93933 102.276 7.25133 102.501 7.65C102.735 8.04 102.852 8.482 102.852 8.976V13.5H101.877V9.353C101.877 8.92833 101.799 8.56867 101.643 8.274C101.496 7.97933 101.284 7.754 101.006 7.598C100.738 7.43333 100.426 7.351 100.07 7.351C99.7149 7.351 99.3986 7.43333 99.1212 7.598C98.8439 7.754 98.6272 7.98367 98.4712 8.287C98.3152 8.58167 98.2372 8.937 98.2372 9.353V13.5H97.2622ZM107.899 13.656C107.215 13.656 106.612 13.4957 106.092 13.175C105.572 12.8543 105.165 12.421 104.87 11.875C104.576 11.3203 104.428 10.6963 104.428 10.003C104.428 9.30967 104.576 8.69 104.87 8.144C105.165 7.598 105.572 7.169 106.092 6.857C106.612 6.53633 107.215 6.376 107.899 6.376C108.333 6.376 108.74 6.454 109.121 6.61C109.503 6.766 109.841 6.97833 110.135 7.247C110.43 7.507 110.651 7.81033 110.798 8.157L109.914 8.612C109.741 8.23933 109.477 7.936 109.121 7.702C108.766 7.468 108.359 7.351 107.899 7.351C107.44 7.351 107.024 7.468 106.651 7.702C106.287 7.92733 105.997 8.24367 105.78 8.651C105.572 9.04967 105.468 9.50467 105.468 10.016C105.468 10.5187 105.572 10.9737 105.78 11.381C105.997 11.7797 106.287 12.096 106.651 12.33C107.024 12.564 107.44 12.681 107.899 12.681C108.359 12.681 108.762 12.564 109.108 12.33C109.464 12.096 109.732 11.784 109.914 11.394L110.798 11.875C110.651 12.213 110.43 12.5163 110.135 12.785C109.841 13.0537 109.503 13.266 109.121 13.422C108.74 13.578 108.333 13.656 107.899 13.656ZM115.681 13.656C115.031 13.656 114.442 13.5 113.913 13.188C113.393 12.8673 112.982 12.4297 112.678 11.875C112.375 11.3203 112.223 10.692 112.223 9.99C112.223 9.288 112.371 8.66833 112.665 8.131C112.96 7.585 113.359 7.156 113.861 6.844C114.373 6.532 114.945 6.376 115.577 6.376C116.08 6.376 116.526 6.47133 116.916 6.662C117.315 6.844 117.653 7.09533 117.93 7.416C118.208 7.728 118.42 8.08333 118.567 8.482C118.715 8.872 118.788 9.275 118.788 9.691C118.788 9.77767 118.784 9.87733 118.775 9.99C118.767 10.094 118.754 10.2023 118.736 10.315H112.847V9.405H118.177L117.709 9.795C117.787 9.31833 117.731 8.89367 117.54 8.521C117.358 8.13967 117.094 7.84067 116.747 7.624C116.401 7.39867 116.011 7.286 115.577 7.286C115.144 7.286 114.741 7.39867 114.368 7.624C114.004 7.84933 113.718 8.16567 113.51 8.573C113.302 8.97167 113.22 9.44833 113.263 10.003C113.22 10.5577 113.307 11.043 113.523 11.459C113.749 11.8663 114.052 12.1827 114.433 12.408C114.823 12.6333 115.239 12.746 115.681 12.746C116.193 12.746 116.622 12.6247 116.968 12.382C117.315 12.1393 117.597 11.836 117.813 11.472L118.645 11.914C118.507 12.226 118.294 12.5163 118.008 12.785C117.722 13.045 117.38 13.2573 116.981 13.422C116.591 13.578 116.158 13.656 115.681 13.656Z" fill="white"/>
</svg>
