<svg width="20" height="20" viewBox="0 0 20 20" fill="none" xmlns="http://www.w3.org/2000/svg">
<g clip-path="url(#clip0_228_663)">
<path d="M5.33335 9.99996L9.33335 13.3333L14.6667 6.66663M10 19.3333C8.77435 19.3333 7.56068 19.0919 6.42831 18.6228C5.29594 18.1538 4.26704 17.4663 3.40036 16.5996C2.53368 15.7329 1.84619 14.704 1.37714 13.5717C0.908101 12.4393 0.666687 11.2256 0.666687 9.99996C0.666687 8.77429 0.908101 7.56062 1.37714 6.42825C1.84619 5.29588 2.53368 4.26698 3.40036 3.4003C4.26704 2.53362 5.29594 1.84613 6.42831 1.37708C7.56068 0.90804 8.77435 0.666626 10 0.666626C12.4754 0.666626 14.8493 1.64996 16.5997 3.4003C18.35 5.15064 19.3334 7.52461 19.3334 9.99996C19.3334 12.4753 18.35 14.8493 16.5997 16.5996C14.8493 18.35 12.4754 19.3333 10 19.3333Z" stroke="#D89B65" stroke-width="1.5"/>
</g>
<defs>
<clipPath id="clip0_228_663">
<rect width="20" height="20" fill="white"/>
</clipPath>
</defs>
</svg>
