<svg width="81" height="80" viewBox="0 0 81 80" fill="none" xmlns="http://www.w3.org/2000/svg">
<rect x="0.5" width="80" height="80" rx="40" fill="#FBF5F0"/>
<path d="M41 38C39.3431 38 38 39.3431 38 41C38 42.6569 39.3431 44 41 44C42.6569 44 44 42.6569 44 41C44 39.3431 42.6569 38 41 38Z" fill="#D89B65"/>
<path fill-rule="evenodd" clip-rule="evenodd" d="M39.2426 31.5H42.7574C43.553 31.5 44.3161 31.8161 44.8787 32.3787L45.5646 33.0646C45.8519 33.3519 46.1945 33.5778 46.5717 33.7287L49.1142 34.7457C50.2531 35.2013 51 36.3044 51 37.5311V45.5C51 47.1569 49.6569 48.5 48 48.5H34C32.3431 48.5 31 47.1569 31 45.5V37.5311C31 36.3044 31.7469 35.2013 32.8858 34.7457L35.4283 33.7287C35.8055 33.5778 36.1481 33.3519 36.4354 33.0646L37.1213 32.3787C37.6839 31.8161 38.447 31.5 39.2426 31.5ZM36 41C36 38.2386 38.2386 36 41 36C43.7614 36 46 38.2386 46 41C46 43.7614 43.7614 46 41 46C38.2386 46 36 43.7614 36 41ZM44.8477 37.1923C45.2486 37.326 45.5631 37.6405 45.6968 38.0415C45.8328 38.4495 46.4099 38.4495 46.5459 38.0415C46.6795 37.6405 46.9941 37.326 47.395 37.1923C47.803 37.0563 47.803 36.4792 47.395 36.3432C46.9941 36.2096 46.6795 35.895 46.5459 35.4941C46.4099 35.0861 45.8328 35.0861 45.6968 35.4941C45.5631 35.895 45.2486 36.2096 44.8477 36.3432C44.4396 36.4792 44.4396 37.0563 44.8477 37.1923Z" fill="#D89B65"/>
</svg>
