<svg width="16" height="16" viewBox="0 0 16 16" fill="none" xmlns="http://www.w3.org/2000/svg">
<path d="M10.6673 8.60065V11.4007C10.6673 13.734 9.73398 14.6673 7.40065 14.6673H4.60065C2.26732 14.6673 1.33398 13.734 1.33398 11.4007V8.60065C1.33398 6.26732 2.26732 5.33398 4.60065 5.33398H7.40065C9.73398 5.33398 10.6673 6.26732 10.6673 8.60065Z" stroke="#D89B65" stroke-linecap="round" stroke-linejoin="round"/>
<path d="M14.6673 4.60065V7.40065C14.6673 9.73398 13.734 10.6673 11.4007 10.6673H10.6673V8.60065C10.6673 6.26732 9.73398 5.33398 7.40065 5.33398H5.33398V4.60065C5.33398 2.26732 6.26732 1.33398 8.60065 1.33398H11.4007C13.734 1.33398 14.6673 2.26732 14.6673 4.60065Z" stroke="#D89B65" stroke-linecap="round" stroke-linejoin="round"/>
</svg>
