<svg width="20" height="20" viewBox="0 0 20 20" fill="none" xmlns="http://www.w3.org/2000/svg">
<mask id="path-1-inside-1_703_1226" fill="white">
<path d="M13.3333 18.9577H6.66667C3.625 18.9577 1.875 17.2077 1.875 14.166V5.83268C1.875 2.79102 3.625 1.04102 6.66667 1.04102H13.3333C16.375 1.04102 18.125 2.79102 18.125 5.83268V14.166C18.125 17.2077 16.375 18.9577 13.3333 18.9577ZM6.66667 2.29102C4.28333 2.29102 3.125 3.44935 3.125 5.83268V14.166C3.125 16.5493 4.28333 17.7077 6.66667 17.7077H13.3333C15.7167 17.7077 16.875 16.5493 16.875 14.166V5.83268C16.875 3.44935 15.7167 2.29102 13.3333 2.29102H6.66667Z"/>
</mask>
<path d="M13.3333 18.9577H6.66667C3.625 18.9577 1.875 17.2077 1.875 14.166V5.83268C1.875 2.79102 3.625 1.04102 6.66667 1.04102H13.3333C16.375 1.04102 18.125 2.79102 18.125 5.83268V14.166C18.125 17.2077 16.375 18.9577 13.3333 18.9577ZM6.66667 2.29102C4.28333 2.29102 3.125 3.44935 3.125 5.83268V14.166C3.125 16.5493 4.28333 17.7077 6.66667 17.7077H13.3333C15.7167 17.7077 16.875 16.5493 16.875 14.166V5.83268C16.875 3.44935 15.7167 2.29102 13.3333 2.29102H6.66667Z" fill="#D89B65"/>
<path d="M13.3333 17.7077H6.66667V20.2077H13.3333V17.7077ZM6.66667 17.7077C5.38311 17.7077 4.53823 17.3427 4.01409 16.8186C3.48995 16.2945 3.125 15.4496 3.125 14.166H0.625C0.625 15.9241 1.13505 17.4751 2.24632 18.5864C3.3576 19.6976 4.90856 20.2077 6.66667 20.2077V17.7077ZM3.125 14.166V5.83268H0.625V14.166H3.125ZM3.125 5.83268C3.125 4.54912 3.48995 3.70424 4.01409 3.18011C4.53823 2.65597 5.38311 2.29102 6.66667 2.29102V-0.208984C4.90856 -0.208984 3.3576 0.301061 2.24632 1.41234C1.13505 2.52362 0.625 4.07457 0.625 5.83268H3.125ZM6.66667 2.29102H13.3333V-0.208984H6.66667V2.29102ZM13.3333 2.29102C14.6169 2.29102 15.4618 2.65597 15.9859 3.18011C16.51 3.70424 16.875 4.54912 16.875 5.83268H19.375C19.375 4.07457 18.865 2.52362 17.7537 1.41234C16.6424 0.301061 15.0914 -0.208984 13.3333 -0.208984V2.29102ZM16.875 5.83268V14.166H19.375V5.83268H16.875ZM16.875 14.166C16.875 15.4496 16.51 16.2945 15.9859 16.8186C15.4618 17.3427 14.6169 17.7077 13.3333 17.7077V20.2077C15.0914 20.2077 16.6424 19.6976 17.7537 18.5864C18.865 17.4751 19.375 15.9241 19.375 14.166H16.875ZM6.66667 1.04102C5.29128 1.04102 4.02723 1.37518 3.1182 2.28422C2.20917 3.19325 1.875 4.45729 1.875 5.83268H4.375C4.375 4.82474 4.62 4.31795 4.88597 4.05198C5.15194 3.78601 5.65872 3.54102 6.66667 3.54102V1.04102ZM1.875 5.83268V14.166H4.375V5.83268H1.875ZM1.875 14.166C1.875 15.5414 2.20917 16.8055 3.1182 17.7145C4.02723 18.6235 5.29128 18.9577 6.66667 18.9577V16.4577C5.65872 16.4577 5.15194 16.2127 4.88597 15.9467C4.62 15.6807 4.375 15.174 4.375 14.166H1.875ZM6.66667 18.9577H13.3333V16.4577H6.66667V18.9577ZM13.3333 18.9577C14.7087 18.9577 15.9728 18.6235 16.8818 17.7145C17.7908 16.8055 18.125 15.5414 18.125 14.166H15.625C15.625 15.174 15.38 15.6807 15.114 15.9467C14.8481 16.2127 14.3413 16.4577 13.3333 16.4577V18.9577ZM18.125 14.166V5.83268H15.625V14.166H18.125ZM18.125 5.83268C18.125 4.45729 17.7908 3.19325 16.8818 2.28422C15.9728 1.37518 14.7087 1.04102 13.3333 1.04102V3.54102C14.3413 3.54102 14.8481 3.78601 15.114 4.05198C15.38 4.31795 15.625 4.82474 15.625 5.83268H18.125ZM13.3333 1.04102H6.66667V3.54102H13.3333V1.04102Z" fill="#D89B65" mask="url(#path-1-inside-1_703_1226)"/>
<path d="M13.7507 7.08333C12.8319 7.08333 12.0883 6.34251 12.084 5.42475C12.0884 6.34121 12.8332 7.08333 13.7507 7.08333Z" fill="#D89B65" stroke="#D89B65" stroke-width="1.25"/>
<mask id="path-4-inside-2_703_1226" fill="white">
<path d="M9.99935 11.459H6.66602C6.32435 11.459 6.04102 11.1757 6.04102 10.834C6.04102 10.4923 6.32435 10.209 6.66602 10.209H9.99935C10.341 10.209 10.6243 10.4923 10.6243 10.834C10.6243 11.1757 10.341 11.459 9.99935 11.459Z"/>
</mask>
<path d="M9.99935 11.459H6.66602C6.32435 11.459 6.04102 11.1757 6.04102 10.834C6.04102 10.4923 6.32435 10.209 6.66602 10.209H9.99935C10.341 10.209 10.6243 10.4923 10.6243 10.834C10.6243 11.1757 10.341 11.459 9.99935 11.459Z" fill="#D89B65"/>
<path d="M9.99935 10.209H6.66602V12.709H9.99935V10.209ZM6.66602 10.209C7.0147 10.209 7.29102 10.4853 7.29102 10.834H4.79102C4.79102 11.866 5.63399 12.709 6.66602 12.709V10.209ZM7.29102 10.834C7.29102 11.1827 7.0147 11.459 6.66602 11.459V8.95898C5.63399 8.95898 4.79102 9.80196 4.79102 10.834H7.29102ZM6.66602 11.459H9.99935V8.95898H6.66602V11.459ZM9.99935 11.459C9.65066 11.459 9.37435 11.1827 9.37435 10.834H11.8743C11.8743 9.80196 11.0314 8.95898 9.99935 8.95898V11.459ZM9.37435 10.834C9.37435 10.4853 9.65066 10.209 9.99935 10.209V12.709C11.0314 12.709 11.8743 11.866 11.8743 10.834H9.37435Z" fill="#D89B65" mask="url(#path-4-inside-2_703_1226)"/>
<path d="M13.3327 14.791H6.66602C6.32435 14.791 6.04102 14.5077 6.04102 14.166C6.04102 13.8243 6.32435 13.541 6.66602 13.541H13.3327C13.6743 13.541 13.9577 13.8243 13.9577 14.166C13.9577 14.5077 13.6743 14.791 13.3327 14.791Z" fill="#D89B65"/>
</svg>
