<svg width="16" height="16" viewBox="0 0 16 16" fill="none" xmlns="http://www.w3.org/2000/svg">
<g clip-path="url(#clip0_493_54154)">
<path d="M4.47935 11.094C4.64909 11.0445 4.83154 11.0644 4.98657 11.1494C5.1416 11.2345 5.25651 11.3776 5.30602 11.5473C5.35552 11.7171 5.33557 11.8995 5.25056 12.0545C5.16554 12.2096 5.02242 12.3245 4.85268 12.374C4.51935 12.4713 4.27935 12.574 4.12535 12.6673C4.28402 12.7627 4.53468 12.8693 4.88268 12.9686C5.65268 13.1887 6.75468 13.334 7.99935 13.334C9.24402 13.334 10.346 13.1887 11.116 12.9686C11.4647 12.8693 11.7147 12.7627 11.8734 12.6673C11.72 12.574 11.48 12.4713 11.1467 12.374C10.9796 12.3223 10.8395 12.207 10.7567 12.053C10.6738 11.899 10.6547 11.7186 10.7036 11.5507C10.7525 11.3828 10.8654 11.2409 11.018 11.1554C11.1706 11.07 11.3506 11.0479 11.5194 11.094C11.9647 11.224 12.3727 11.3907 12.686 11.6047C12.976 11.804 13.3327 12.1513 13.3327 12.6673C13.3327 13.1893 12.9673 13.5393 12.6727 13.7387C12.354 13.9533 11.9374 14.1207 11.482 14.2507C10.5633 14.514 9.33268 14.6673 7.99935 14.6673C6.66602 14.6673 5.43535 14.514 4.51668 14.2507C4.06135 14.1207 3.64468 13.9533 3.32602 13.7387C3.03135 13.5387 2.66602 13.1893 2.66602 12.6673C2.66602 12.1513 3.02268 11.804 3.31268 11.6047C3.62602 11.3907 4.03402 11.224 4.47935 11.094ZM7.99935 1.33398C9.32543 1.33398 10.5972 1.86077 11.5349 2.79845C12.4726 3.73613 12.9993 5.0079 12.9993 6.33398C12.9993 8.04598 12.066 9.43798 11.0993 10.4273C10.7151 10.8166 10.3021 11.1765 9.86402 11.504C9.46802 11.8013 8.56268 12.3587 8.56268 12.3587C8.39097 12.4562 8.19686 12.5076 7.99935 12.5076C7.80184 12.5076 7.60772 12.4562 7.43602 12.3587C6.98653 12.0984 6.55206 11.8131 6.13468 11.504C5.69638 11.1767 5.28342 10.8168 4.89935 10.4273C3.93268 9.43798 2.99935 8.04598 2.99935 6.33398C2.99935 5.0079 3.52613 3.73613 4.46382 2.79845C5.4015 1.86077 6.67327 1.33398 7.99935 1.33398ZM7.99935 2.66732C7.02689 2.66732 6.09426 3.05363 5.40662 3.74126C4.71899 4.42889 4.33268 5.36152 4.33268 6.33398C4.33268 7.54465 4.99668 8.61932 5.85268 9.49398C6.49668 10.1526 7.20602 10.654 7.69735 10.962L7.99935 11.1447L8.30135 10.962C8.79202 10.654 9.50202 10.1527 10.146 9.49465C11.002 8.61932 11.666 7.54532 11.666 6.33398C11.666 5.36152 11.2797 4.42889 10.5921 3.74126C9.90444 3.05363 8.97181 2.66732 7.99935 2.66732ZM7.99935 4.33398C8.26199 4.33398 8.52206 4.38572 8.76472 4.48623C9.00737 4.58673 9.22785 4.73405 9.41356 4.91977C9.59928 5.10549 9.7466 5.32597 9.84711 5.56862C9.94762 5.81127 9.99935 6.07134 9.99935 6.33398C9.99935 6.59663 9.94762 6.8567 9.84711 7.09935C9.7466 7.342 9.59928 7.56248 9.41356 7.7482C9.22785 7.93392 9.00737 8.08123 8.76472 8.18174C8.52206 8.28225 8.26199 8.33398 7.99935 8.33398C7.46892 8.33398 6.96021 8.12327 6.58514 7.7482C6.21006 7.37313 5.99935 6.86442 5.99935 6.33398C5.99935 5.80355 6.21006 5.29484 6.58514 4.91977C6.96021 4.5447 7.46892 4.33398 7.99935 4.33398ZM7.99935 5.66732C7.82254 5.66732 7.65297 5.73756 7.52794 5.86258C7.40292 5.9876 7.33268 6.15717 7.33268 6.33398C7.33268 6.5108 7.40292 6.68036 7.52794 6.80539C7.65297 6.93041 7.82254 7.00065 7.99935 7.00065C8.17616 7.00065 8.34573 6.93041 8.47075 6.80539C8.59578 6.68036 8.66602 6.5108 8.66602 6.33398C8.66602 6.15717 8.59578 5.9876 8.47075 5.86258C8.34573 5.73756 8.17616 5.66732 7.99935 5.66732Z" fill="#D89B65"/>
</g>
<defs>
<clipPath id="clip0_493_54154">
<rect width="16" height="16" fill="white"/>
</clipPath>
</defs>
</svg>
