<svg width="14" height="18" viewBox="0 0 14 18" fill="none" xmlns="http://www.w3.org/2000/svg">
<path fill-rule="evenodd" clip-rule="evenodd" d="M7.71601 0.981864C7.71601 0.726119 7.81761 0.48085 7.99844 0.300011C8.17928 0.119172 8.42455 0.0175781 8.6803 0.0175781H12.1157C12.3715 0.0175781 12.6167 0.119172 12.7976 0.300011C12.9784 0.48085 13.08 0.726119 13.08 0.981864V4.41858C13.08 4.67432 12.9784 4.91959 12.7976 5.10043C12.6167 5.28127 12.3715 5.38286 12.1157 5.38286C11.86 5.38286 11.6147 5.28127 11.4339 5.10043C11.253 4.91959 11.1514 4.67432 11.1514 4.41858V3.30901L9.3643 5.09615C9.81806 5.77413 10.0975 6.55361 10.1778 7.36547C10.2582 8.17732 10.1369 8.99645 9.82484 9.75022C9.51275 10.504 9.01948 11.1691 8.38876 11.6865C7.75804 12.204 7.00937 12.5578 6.20915 12.7166V13.7619H7.53473C7.79047 13.7619 8.03574 13.8635 8.21658 14.0443C8.39742 14.2251 8.49901 14.4704 8.49901 14.7262C8.49901 14.9819 8.39742 15.2272 8.21658 15.408C8.03574 15.5888 7.79047 15.6904 7.53473 15.6904H6.20915V17.016C6.20915 17.2718 6.10756 17.517 5.92672 17.6979C5.74588 17.8787 5.50061 17.9803 5.24487 17.9803C4.98912 17.9803 4.74385 17.8787 4.56301 17.6979C4.38218 17.517 4.28058 17.2718 4.28058 17.016V15.6904H2.95244C2.82581 15.6904 2.70042 15.6655 2.58342 15.617C2.46643 15.5686 2.36013 15.4975 2.27059 15.408C2.18104 15.3185 2.11002 15.2122 2.06156 15.0952C2.0131 14.9782 1.98815 14.8528 1.98815 14.7262C1.98815 14.5995 2.0131 14.4741 2.06156 14.3571C2.11002 14.2401 2.18104 14.1338 2.27059 14.0443C2.36013 13.9548 2.46643 13.8837 2.58342 13.8353C2.70042 13.7868 2.82581 13.7619 2.95244 13.7619H4.2793V12.7153C3.55956 12.5733 2.88032 12.2733 2.29054 11.837C1.70077 11.4008 1.21517 10.839 0.868764 10.1923C0.52236 9.54568 0.323786 8.83019 0.287364 8.09749C0.250942 7.36478 0.37758 6.63313 0.658145 5.95529C0.938709 5.27746 1.36621 4.67033 1.90981 4.17771C2.45341 3.68508 3.09956 3.31923 3.80166 3.10655C4.50376 2.89387 5.24431 2.83965 5.9699 2.94781C6.69549 3.05597 7.38803 3.32381 7.99758 3.73201L9.78473 1.94486H8.67901C8.42327 1.94486 8.178 1.84327 7.99716 1.66243C7.81632 1.48159 7.71472 1.23632 7.71472 0.980578L7.71601 0.981864ZM2.71844 6.37929C2.71844 5.93572 3.07844 5.57572 3.52201 5.57572H6.96772C7.18085 5.57572 7.38524 5.66038 7.53594 5.81108C7.68663 5.96178 7.7713 6.16617 7.7713 6.37929C7.7713 6.59241 7.68663 6.7968 7.53594 6.9475C7.38524 7.0982 7.18085 7.18286 6.96772 7.18286H3.52201C3.30889 7.18286 3.1045 7.0982 2.9538 6.9475C2.8031 6.7968 2.71844 6.59241 2.71844 6.37929ZM3.52201 8.52643C3.30889 8.52643 3.1045 8.6111 2.9538 8.7618C2.8031 8.91249 2.71844 9.11689 2.71844 9.33001C2.71844 9.54313 2.8031 9.74752 2.9538 9.89822C3.1045 10.0489 3.30889 10.1336 3.52201 10.1336H6.96772C7.18085 10.1336 7.38524 10.0489 7.53594 9.89822C7.68663 9.74752 7.7713 9.54313 7.7713 9.33001C7.7713 9.11689 7.68663 8.91249 7.53594 8.7618C7.38524 8.6111 7.18085 8.52643 6.96772 8.52643H3.52201Z" fill="#D89B65"/>
</svg>
