<svg width="18" height="18" viewBox="0 0 18 18" fill="none" xmlns="http://www.w3.org/2000/svg">
<path d="M11.1212 11.1208C11.4078 10.844 11.6363 10.513 11.7935 10.147C11.9508 9.78096 12.0335 9.3873 12.037 8.98896C12.0405 8.59062 11.9646 8.19558 11.8137 7.82689C11.6629 7.4582 11.4401 7.12325 11.1584 6.84157C10.8768 6.55989 10.5418 6.33713 10.1731 6.18629C9.80442 6.03545 9.40938 5.95954 9.01104 5.963C8.6127 5.96647 8.21904 6.04922 7.85303 6.20645C7.48702 6.36368 7.15599 6.59222 6.87924 6.87876C6.33277 7.44456 6.03039 8.20237 6.03722 8.98896C6.04406 9.77555 6.35956 10.528 6.91579 11.0842C7.47201 11.6404 8.22445 11.9559 9.01104 11.9628C9.79763 11.9696 10.5554 11.6672 11.1212 11.1208Z" stroke="#D89B65" stroke-width="2" stroke-linecap="round" stroke-linejoin="round"/>
<path d="M6.87947 15.3642C7.15805 15.0856 7.37904 14.7549 7.5298 14.3909C7.68057 14.0269 7.75817 13.6368 7.75817 13.2428C7.75817 12.8489 7.68057 12.4587 7.5298 12.0948C7.37904 11.7308 7.15805 11.4001 6.87947 11.1215C6.60089 10.8429 6.27016 10.6219 5.90617 10.4711C5.54219 10.3204 5.15207 10.2428 4.75809 10.2428C4.36412 10.2428 3.974 10.3204 3.61001 10.4711C3.24603 10.6219 2.9153 10.8429 2.63672 11.1215M11.1215 2.63672C10.5588 3.19934 10.2428 3.96242 10.2428 4.75809C10.2428 5.55376 10.5588 6.31684 11.1215 6.87947C11.6841 7.44209 12.4472 7.75817 13.2428 7.75817C14.0385 7.75817 14.8016 7.44209 15.3642 6.87947" stroke="#D89B65" stroke-width="2" stroke-linecap="round" stroke-linejoin="round"/>
</svg>
