<svg width="24" height="24" viewBox="0 0 24 24" fill="none" xmlns="http://www.w3.org/2000/svg">
<rect width="24" height="24" rx="4" fill="#CA0C0C"/>
<path d="M12 13.458C11.6583 13.458 11.375 13.1747 11.375 12.833V8.45801C11.375 8.11634 11.6583 7.83301 12 7.83301C12.3417 7.83301 12.625 8.11634 12.625 8.45801V12.833C12.625 13.1747 12.3417 13.458 12 13.458Z" fill="white"/>
<path d="M11.9993 16.375C11.7743 16.375 11.566 16.2917 11.4077 16.1334C11.3327 16.05 11.2744 15.9584 11.2244 15.8584C11.1827 15.7584 11.166 15.65 11.166 15.5417C11.166 15.325 11.2577 15.1083 11.4077 14.95C11.716 14.6417 12.2827 14.6417 12.591 14.95C12.741 15.1083 12.8327 15.325 12.8327 15.5417C12.8327 15.65 12.8077 15.7584 12.766 15.8584C12.7243 15.9584 12.666 16.05 12.591 16.1334C12.4327 16.2917 12.2243 16.375 11.9993 16.375Z" fill="white"/>
<path d="M12.0008 20.9579C11.4425 20.9579 10.8758 20.8162 10.3758 20.5246L5.42579 17.6662C4.42579 17.0829 3.80078 16.0079 3.80078 14.8496V9.14961C3.80078 7.99127 4.42579 6.91627 5.42579 6.33294L10.3758 3.47461C11.3758 2.89128 12.6175 2.89128 13.6258 3.47461L18.5758 6.33294C19.5758 6.91627 20.2008 7.99127 20.2008 9.14961V14.8496C20.2008 16.0079 19.5758 17.0829 18.5758 17.6662L13.6258 20.5246C13.1258 20.8162 12.5591 20.9579 12.0008 20.9579ZM12.0008 4.29126C11.6591 4.29126 11.3091 4.38293 11.0008 4.55793L6.05079 7.41626C5.43412 7.77459 5.05078 8.43294 5.05078 9.14961V14.8496C5.05078 15.5579 5.43412 16.2246 6.05079 16.5829L11.0008 19.4413C11.6175 19.7996 12.3841 19.7996 12.9925 19.4413L17.9425 16.5829C18.5591 16.2246 18.9425 15.5662 18.9425 14.8496V9.14961C18.9425 8.44127 18.5591 7.77459 17.9425 7.41626L12.9925 4.55793C12.6925 4.38293 12.3425 4.29126 12.0008 4.29126Z" fill="white"/>
</svg>
