<svg width="20" height="18" viewBox="0 0 20 18" fill="none" xmlns="http://www.w3.org/2000/svg">
<path d="M18.6174 6.5526L18.6173 6.55234C16.4117 3.08651 13.2473 1.17969 10 1.17969C8.37058 1.17969 6.77561 1.65474 5.30385 2.55796C3.83131 3.47165 2.48923 4.81637 1.38258 6.5526H18.6174ZM18.6174 6.5526C19.0241 7.19111 19.25 8.07546 19.25 8.99844C19.25 9.92163 19.024 10.8024 18.6186 11.4349L18.6175 11.4366C17.5109 13.1729 16.1688 14.5177 14.6962 15.4314C13.2244 16.3346 11.6294 16.8097 10 16.8097C6.75181 16.8097 3.58801 14.912 1.38325 11.4378L1.38258 11.4368M18.6174 6.5526L1.38258 11.4368M1.38258 11.4368C0.975695 10.798 0.75 9.91597 0.75 8.99469M1.38258 11.4368L0.75 8.99469M0.75 8.99469C0.75 8.0735 0.97565 7.19159 1.38246 6.55279L0.75 8.99469ZM5.21 8.99969C5.21 11.6427 7.34458 13.7897 10 13.7897C12.6554 13.7897 14.79 11.6427 14.79 8.99969C14.79 6.35668 12.6554 4.20969 10 4.20969C7.34458 4.20969 5.21 6.35668 5.21 8.99969Z" fill="white" stroke="white" stroke-width="1.5"/>
</svg>
