<svg width="18" height="18" viewBox="0 0 18 18" fill="none" xmlns="http://www.w3.org/2000/svg">
<path d="M8.99935 17.0404C8.74102 17.0404 8.49102 17.007 8.28268 16.932C5.09935 15.8404 0.0410156 11.9654 0.0410156 6.24036C0.0410156 3.3237 2.39935 0.957031 5.29935 0.957031C6.70768 0.957031 8.02435 1.50703 8.99935 2.49036C9.97435 1.50703 11.291 0.957031 12.6993 0.957031C15.5993 0.957031 17.9577 3.33203 17.9577 6.24036C17.9577 11.9737 12.8993 15.8404 9.71602 16.932C9.50768 17.007 9.25768 17.0404 8.99935 17.0404ZM5.29935 2.20703C3.09102 2.20703 1.29102 4.01536 1.29102 6.24036C1.29102 11.932 6.76602 15.0987 8.69102 15.757C8.84102 15.807 9.16602 15.807 9.31602 15.757C11.2327 15.0987 16.716 11.9404 16.716 6.24036C16.716 4.01536 14.916 2.20703 12.7077 2.20703C11.441 2.20703 10.266 2.7987 9.50768 3.8237C9.27435 4.14036 8.74102 4.14036 8.50768 3.8237C7.73268 2.79036 6.56602 2.20703 5.29935 2.20703Z" fill="#D89B65"/>
</svg>
