<svg width="12" height="13" viewBox="0 0 12 13" fill="none" xmlns="http://www.w3.org/2000/svg">
<g id="Location">
<path id="Subtract" fill-rule="evenodd" clip-rule="evenodd" d="M0.894531 5.57509C0.894531 2.77867 3.18408 0.519531 5.9987 0.519531C8.81332 0.519531 11.1029 2.77867 11.1029 5.57509C11.1029 7.31431 10.0886 9.03087 9.01369 10.2804C8.46973 10.9127 7.89237 11.4465 7.3831 11.8262C7.12887 12.0157 6.88453 12.1721 6.66397 12.2832C6.45721 12.3873 6.22109 12.4779 5.9987 12.4779C5.77631 12.4779 5.54019 12.3873 5.33343 12.2832C5.11287 12.1721 4.86852 12.0157 4.6143 11.8262C4.10503 11.4465 3.52767 10.9127 2.9837 10.2804C1.90879 9.03087 0.894531 7.31431 0.894531 5.57509ZM5.99935 7.08268C5.03285 7.08268 4.24935 6.29918 4.24935 5.33268C4.24935 4.36618 5.03285 3.58268 5.99935 3.58268C6.96585 3.58268 7.74935 4.36618 7.74935 5.33268C7.74935 6.29918 6.96585 7.08268 5.99935 7.08268Z" fill="#828282"/>
</g>
</svg>
