<svg width="20" height="20" viewBox="0 0 20 20" fill="none" xmlns="http://www.w3.org/2000/svg">
<path d="M5.97548 18.3327C6.62165 18.3327 7.23958 18.1504 7.74365 17.8285C7.25709 18.1425 6.65104 18.3327 5.97548 18.3327ZM5.97548 18.3327C5.67343 18.3327 5.37705 18.2934 5.09537 18.2185C5.37121 18.2925 5.66624 18.3327 5.97548 18.3327ZM4.15758 16.0231L2.99219 15.3173V14.041C2.99219 15.5669 4.43805 16.491 5.97548 16.491C7.5129 16.491 8.95883 15.5669 8.95883 14.041V15.3173L7.79339 16.0231C7.3059 16.3183 6.68589 16.4994 5.97548 16.4994C5.26508 16.4994 4.64507 16.3183 4.15758 16.0231Z" fill="#D89B65" stroke="#D89B65" stroke-width="1.25"/>
<path d="M3.16183 12.6053C3.18429 12.6584 3.20894 12.7109 3.23578 12.7627C3.20902 12.7114 3.18435 12.6588 3.16183 12.6053ZM8.95049 11.7588C8.95049 11.7602 8.95049 11.7616 8.95049 11.763C8.94919 11.0551 8.62179 10.4098 8.08185 9.93289C8.02511 9.88257 7.96651 9.83465 7.90622 9.78916C7.96372 9.83113 8.01932 9.87523 8.07282 9.9214C8.64996 10.4308 8.95049 11.0811 8.95049 11.7588ZM4.13424 9.72078C4.04127 9.7846 3.95177 9.85376 3.8662 9.92817C3.31941 10.4004 2.99219 11.05 2.99219 11.7588C2.99219 11.0758 3.28856 10.4276 3.86048 9.93058L3.86049 9.93059L3.86249 9.92884C3.94784 9.85402 4.03868 9.78462 4.13424 9.72078Z" fill="#D89B65" stroke="#D89B65" stroke-width="1.25"/>
<path d="M5.97548 16.4993C4.98825 16.4993 4.19045 16.1618 3.66913 15.6415C4.23512 16.1929 5.09012 16.4993 5.97548 16.4993ZM5.97548 16.4993C6.96265 16.4993 7.76042 16.1618 8.28175 15.6416C7.71574 16.1929 6.86078 16.4993 5.97548 16.4993Z" fill="#D89B65" stroke="#D89B65" stroke-width="1.25"/>
<path d="M15.8672 12.3327C14.6089 12.3327 13.5422 11.3993 13.4422 10.1993C13.3756 9.50766 13.6256 8.83268 14.1256 8.34101C14.5423 7.90768 15.1339 7.66602 15.7589 7.66602H17.5006C18.3256 7.69102 18.9589 8.34098 18.9589 9.14098V10.8577C18.9589 11.6577 18.3256 12.3077 17.5256 12.3327H15.8672ZM17.4756 8.91602H15.7672C15.4756 8.91602 15.2089 9.02434 15.0173 9.22434C14.7756 9.45768 14.6589 9.77433 14.6922 10.091C14.7339 10.641 15.2672 11.0827 15.8672 11.0827H17.5006C17.6089 11.0827 17.7089 10.9827 17.7089 10.8577V9.14098C17.7089 9.01598 17.6089 8.92435 17.4756 8.91602Z" fill="#D89B65"/>
<path d="M13.3332 17.7077H11.2499C10.9082 17.7077 10.6249 17.4243 10.6249 17.0827C10.6249 16.741 10.9082 16.4577 11.2499 16.4577H13.3332C15.4832 16.4577 16.8749 15.066 16.8749 12.916V12.3327H15.8665C14.6082 12.3327 13.5415 11.3993 13.4415 10.1993C13.3749 9.50767 13.6249 8.83269 14.1249 8.34102C14.5416 7.90769 15.1332 7.66603 15.7582 7.66603H16.8665V7.08268C16.8665 5.13268 15.7249 3.791 13.8749 3.57433C13.6749 3.541 13.4999 3.54102 13.3249 3.54102H5.82487C5.62487 3.54102 5.43319 3.55767 5.24153 3.58267C3.40819 3.81601 2.2832 5.14935 2.2832 7.08268V8.74935C2.2832 9.09102 1.99987 9.37435 1.6582 9.37435C1.31654 9.37435 1.0332 9.09102 1.0332 8.74935V7.08268C1.0332 4.51602 2.61657 2.65769 5.0749 2.34936C5.2999 2.31602 5.5582 2.29102 5.82487 2.29102H13.3249C13.5249 2.29102 13.7832 2.29935 14.0499 2.34101C16.5082 2.62435 18.1165 4.49102 18.1165 7.08268V8.29103C18.1165 8.63269 17.8332 8.91603 17.4915 8.91603H15.7582C15.4665 8.91603 15.1999 9.02435 15.0082 9.22435C14.7666 9.45769 14.6499 9.77434 14.6832 10.091C14.7249 10.641 15.2582 11.0827 15.8582 11.0827H17.4999C17.8415 11.0827 18.1249 11.366 18.1249 11.7077V12.916C18.1249 15.7827 16.1999 17.7077 13.3332 17.7077Z" fill="#D89B65"/>
</svg>
