<svg width="20" height="17" viewBox="0 0 20 17" fill="none" xmlns="http://www.w3.org/2000/svg">
<path d="M4.16732 15.5V2.72733C4.16724 2.45588 4.25732 2.19209 4.42342 1.97738C4.58953 1.76268 4.82224 1.60923 5.08501 1.54113C5.34779 1.47304 5.62574 1.49415 5.87521 1.60116C6.12469 1.70816 6.33155 1.895 6.46332 2.13233L13.538 14.8677C13.6698 15.105 13.8766 15.2918 14.1261 15.3988C14.3756 15.5058 14.6535 15.527 14.9163 15.4589C15.1791 15.3908 15.4118 15.2373 15.5779 15.0226C15.744 14.8079 15.8341 14.5441 15.834 14.2727V1.5M1.83398 6.16667H18.1673M1.83398 10.8333H18.1673" stroke="white" stroke-width="2" stroke-linecap="round" stroke-linejoin="round"/>
</svg>
