<svg width="9" height="9" viewBox="0 0 9 9" fill="none" xmlns="http://www.w3.org/2000/svg">
<path d="M1.79232 7.75V1.81983C1.79228 1.6938 1.8341 1.57133 1.91122 1.47164C1.98834 1.37196 2.09639 1.30071 2.21839 1.2691C2.34039 1.23748 2.46944 1.24728 2.58527 1.29697C2.7011 1.34665 2.79714 1.43339 2.85832 1.54358L6.14298 7.45642C6.20416 7.56661 6.30021 7.65335 6.41603 7.70303C6.53186 7.75272 6.66091 7.76252 6.78291 7.7309C6.90491 7.69929 7.01296 7.62804 7.09008 7.52836C7.1672 7.42867 7.20902 7.3062 7.20898 7.18017V1.25M0.708984 3.41667H8.29232M0.708984 5.58333H8.29232" stroke="#828282" stroke-width="1.2" stroke-linecap="round" stroke-linejoin="round"/>
</svg>
