<svg width="20" height="20" viewBox="0 0 20 20" fill="none" xmlns="http://www.w3.org/2000/svg">
<mask id="path-1-inside-1_703_499" fill="white">
<path d="M11.6997 18.959H7.70801C6.35801 18.959 5.13301 18.434 4.24968 17.4673C3.36635 16.509 2.94135 15.2423 3.05801 13.9007C3.34135 10.484 6.35801 7.70898 9.79135 7.70898C12.9497 7.70898 15.933 10.2423 16.458 13.3507C16.708 14.834 16.3413 16.234 15.4413 17.3007C14.5247 18.3673 13.1997 18.959 11.6997 18.959ZM9.78301 8.95898C6.99135 8.95898 4.53301 11.2257 4.29968 14.009C4.21635 15.0007 4.52468 15.9257 5.16635 16.6257C5.80801 17.3257 6.70801 17.709 7.69968 17.709H11.6913C12.8163 17.709 13.808 17.2757 14.4663 16.5007C15.1247 15.7257 15.3913 14.6757 15.208 13.559C14.7913 11.0257 12.358 8.95898 9.78301 8.95898Z"/>
</mask>
<path d="M11.6997 18.959H7.70801C6.35801 18.959 5.13301 18.434 4.24968 17.4673C3.36635 16.509 2.94135 15.2423 3.05801 13.9007C3.34135 10.484 6.35801 7.70898 9.79135 7.70898C12.9497 7.70898 15.933 10.2423 16.458 13.3507C16.708 14.834 16.3413 16.234 15.4413 17.3007C14.5247 18.3673 13.1997 18.959 11.6997 18.959ZM9.78301 8.95898C6.99135 8.95898 4.53301 11.2257 4.29968 14.009C4.21635 15.0007 4.52468 15.9257 5.16635 16.6257C5.80801 17.3257 6.70801 17.709 7.69968 17.709H11.6913C12.8163 17.709 13.808 17.2757 14.4663 16.5007C15.1247 15.7257 15.3913 14.6757 15.208 13.559C14.7913 11.0257 12.358 8.95898 9.78301 8.95898Z" fill="#D89B65"/>
<path d="M4.24968 17.4673L5.17245 16.6241L5.1688 16.6201L4.24968 17.4673ZM3.05801 13.9007L4.30332 14.0089L4.30374 14.004L3.05801 13.9007ZM16.458 13.3507L17.6906 13.1429L17.6906 13.1425L16.458 13.3507ZM15.4413 17.3007L16.3894 18.1154L16.3967 18.1067L15.4413 17.3007ZM4.29968 14.009L5.54529 14.1137L5.54531 14.1134L4.29968 14.009ZM15.208 13.559L16.4415 13.3565L16.4414 13.3561L15.208 13.559ZM11.6997 17.709H7.70801V20.209H11.6997V17.709ZM7.70801 17.709C6.69326 17.709 5.8085 17.3202 5.17244 16.6241L3.32692 18.3105C4.45753 19.5478 6.02276 20.209 7.70801 20.209V17.709ZM5.1688 16.6201C4.53129 15.9285 4.21611 15.0117 4.30331 14.0089L1.81271 13.7924C1.66658 15.4729 2.2014 17.0895 3.33056 18.3145L5.1688 16.6201ZM4.30374 14.004C4.53324 11.2364 7.00728 8.95898 9.79135 8.95898V6.45898C5.70875 6.45898 2.14945 9.73156 1.81229 13.7973L4.30374 14.004ZM9.79135 8.95898C12.3373 8.95898 14.8017 11.0496 15.2255 13.5588L17.6906 13.1425C17.0644 9.43501 13.5621 6.45898 9.79135 6.45898V8.95898ZM15.2254 13.5584C15.4187 14.705 15.1328 15.7279 14.486 16.4946L16.3967 18.1067C17.5499 16.74 17.9974 14.9629 17.6906 13.1429L15.2254 13.5584ZM14.4933 16.4859C13.8289 17.2591 12.8586 17.709 11.6997 17.709V20.209C13.5407 20.209 15.2205 19.4755 16.3894 18.1154L14.4933 16.4859ZM9.78301 7.70898C6.33948 7.70898 3.34151 10.4756 3.05405 13.9046L5.54531 14.1134C5.72452 11.9757 7.64321 10.209 9.78301 10.209V7.70898ZM3.05407 13.9043C2.94285 15.2278 3.35676 16.5014 4.2449 17.4703L6.08779 15.781C5.6926 15.3499 5.48984 14.7735 5.54529 14.1137L3.05407 13.9043ZM4.2449 17.4703C5.13634 18.4428 6.37736 18.959 7.69968 18.959V16.459C7.03867 16.459 6.47968 16.2085 6.08779 15.781L4.2449 17.4703ZM7.69968 18.959H11.6913V16.459H7.69968V18.959ZM11.6913 18.959C13.1413 18.959 14.4973 18.3949 15.419 17.3099L13.5137 15.6914C13.1187 16.1564 12.4914 16.459 11.6913 16.459V18.959ZM15.419 17.3099C16.3419 16.2234 16.6772 14.792 16.4415 13.3565L13.9745 13.7615C14.1055 14.5593 13.9074 15.2279 13.5137 15.6914L15.419 17.3099ZM16.4414 13.3561C15.9253 10.2181 12.9693 7.70898 9.78301 7.70898V10.209C11.7467 10.209 13.6574 11.8332 13.9746 13.7619L16.4414 13.3561Z" fill="#D89B65" mask="url(#path-1-inside-1_703_499)"/>
<path d="M6.64258 4.16732C6.64258 5.29589 7.55038 6.22132 8.67233 6.24997C7.55161 6.22125 6.64258 5.29458 6.64258 4.16732ZM6.64258 4.16732C6.64258 3.03618 7.55451 2.1091 8.67999 2.08449C7.55576 2.10916 6.64258 3.03749 6.64258 4.16732ZM10.8092 4.16732C10.8092 5.31506 9.87948 6.25065 8.72591 6.25065C9.87109 6.25065 10.8092 5.3125 10.8092 4.16732Z" fill="#D89B65" stroke="#D89B65" stroke-width="1.25"/>
<path d="M14.4167 7.24935C13.5101 7.24935 12.7742 6.52813 12.7506 5.62734C12.7743 6.52689 13.5114 7.24935 14.4167 7.24935ZM14.4167 7.24935C15.331 7.24935 16.0717 6.51577 16.0832 5.60425C16.0716 6.51449 15.3296 7.24935 14.4167 7.24935ZM12.7502 5.55844C12.763 4.65264 13.496 3.92323 14.4032 3.91607C13.4973 3.92325 12.7631 4.65391 12.7502 5.55844ZM14.4301 3.91607C15.3454 3.92329 16.0833 4.66569 16.0833 5.58268C16.0833 4.667 15.3441 3.92331 14.4301 3.91607Z" fill="#D89B65" stroke="#D89B65" stroke-width="1.25"/>
<path d="M17.5 10.582C16.8118 10.582 16.25 10.0202 16.25 9.33203M17.5 10.582C18.1882 10.582 18.75 10.0202 18.75 9.33203M17.5 10.582C18.1868 10.582 18.75 10.0189 18.75 9.33203M17.5 10.582C16.8132 10.582 16.25 10.0189 16.25 9.33203M16.25 9.33203C16.25 8.64388 16.8118 8.08203 17.5 8.08203M16.25 9.33203C16.25 8.64519 16.8132 8.08203 17.5 8.08203M18.75 9.33203C18.75 8.64388 18.1882 8.08203 17.5 8.08203M18.75 9.33203C18.75 8.64519 18.1868 8.08203 17.5 8.08203" fill="#D89B65" stroke="#D89B65" stroke-width="1.25"/>
<path d="M4.97591 7.2487C4.97591 6.33441 4.24233 5.59369 3.33081 5.58217C4.24106 5.59372 4.97591 6.33572 4.97591 7.2487ZM4.97591 7.2487C4.97591 8.1579 4.25047 8.89546 3.34601 8.91497C4.24922 8.8954 4.97591 8.15659 4.97591 7.2487ZM3.30924 8.91536C2.39045 8.91536 1.64694 8.17454 1.6426 7.25678C1.64696 8.17325 2.39176 8.91536 3.30924 8.91536ZM1.6426 7.24061C1.64693 6.32555 2.38609 5.58638 3.30116 5.58205C2.38739 5.5864 1.64694 6.32684 1.6426 7.24061Z" fill="#D89B65" stroke="#D89B65" stroke-width="1.25"/>
</svg>
