<svg width="25" height="24" viewBox="0 0 25 24" fill="none" xmlns="http://www.w3.org/2000/svg">
<g id="vuesax/outline/search-normal">
<g id="search-normal">
<path id="Vector" d="M12 21.75C6.35 21.75 1.75 17.15 1.75 11.5C1.75 5.85 6.35 1.25 12 1.25C17.65 1.25 22.25 5.85 22.25 11.5C22.25 17.15 17.65 21.75 12 21.75ZM12 2.75C7.17 2.75 3.25 6.68 3.25 11.5C3.25 16.32 7.17 20.25 12 20.25C16.83 20.25 20.75 16.32 20.75 11.5C20.75 6.68 16.83 2.75 12 2.75Z" fill="#626262"/>
<path id="Vector_2" d="M22.4995 22.7495C22.3095 22.7495 22.1195 22.6795 21.9695 22.5295L19.9695 20.5295C19.6795 20.2395 19.6795 19.7595 19.9695 19.4695C20.2595 19.1795 20.7395 19.1795 21.0295 19.4695L23.0295 21.4695C23.3195 21.7595 23.3195 22.2395 23.0295 22.5295C22.8795 22.6795 22.6895 22.7495 22.4995 22.7495Z" fill="#626262"/>
</g>
</g>
</svg>
