<svg width="25" height="24" viewBox="0 0 25 24" fill="none" xmlns="http://www.w3.org/2000/svg">
<g id="vuesax/bold/search-normal">
<g id="search-normal">
<path id="Vector" d="M12 21C17.2467 21 21.5 16.7467 21.5 11.5C21.5 6.25329 17.2467 2 12 2C6.75329 2 2.5 6.25329 2.5 11.5C2.5 16.7467 6.75329 21 12 21Z" fill="#D89B65"/>
<path id="Vector_2" d="M21.8005 22.0005C21.6205 22.0005 21.4405 21.9305 21.3105 21.8005L19.4505 19.9405C19.1805 19.6705 19.1805 19.2305 19.4505 18.9505C19.7205 18.6805 20.1605 18.6805 20.4405 18.9505L22.3005 20.8105C22.5705 21.0805 22.5705 21.5205 22.3005 21.8005C22.1605 21.9305 21.9805 22.0005 21.8005 22.0005Z" fill="#D89B65"/>
</g>
</g>
</svg>
