<svg width="20" height="20" viewBox="0 0 20 20" fill="none" xmlns="http://www.w3.org/2000/svg">
<path d="M9.99922 18.9583C9.79922 18.9583 9.59923 18.9334 9.40756 18.875C5.08256 17.6834 1.94922 13.6417 1.94922 9.25833V5.59998C1.94922 4.66665 2.62422 3.65836 3.49089 3.30002L8.13256 1.4C9.3409 0.908333 10.6659 0.908333 11.8659 1.4L16.5076 3.30002C17.3742 3.65836 18.0492 4.66665 18.0492 5.59998V9.25833C18.0492 13.6333 14.9075 17.675 10.5909 18.875C10.3992 18.9334 10.1992 18.9583 9.99922 18.9583ZM9.99922 2.29167C9.52422 2.29167 9.05754 2.38335 8.60754 2.56669L3.9659 4.46666C3.5659 4.63333 3.19922 5.17499 3.19922 5.60832V9.26667C3.19922 13.0917 5.94922 16.625 9.74089 17.675C9.90756 17.725 10.0909 17.725 10.2576 17.675C14.0492 16.625 16.7992 13.0917 16.7992 9.26667V5.60832C16.7992 5.17499 16.4325 4.63333 16.0325 4.46666L11.3909 2.56669C10.9409 2.38335 10.4742 2.29167 9.99922 2.29167Z" fill="#D89B65"/>
<path d="M10.0007 11.0423C8.73398 11.0423 7.70898 10.0173 7.70898 8.75065C7.70898 7.48398 8.73398 6.45898 10.0007 6.45898C11.2673 6.45898 12.2923 7.48398 12.2923 8.75065C12.2923 10.0173 11.2673 11.0423 10.0007 11.0423ZM10.0007 7.70898C9.42565 7.70898 8.95898 8.17565 8.95898 8.75065C8.95898 9.32565 9.42565 9.79232 10.0007 9.79232C10.5757 9.79232 11.0423 9.32565 11.0423 8.75065C11.0423 8.17565 10.5757 7.70898 10.0007 7.70898Z" fill="#D89B65"/>
<path d="M10 13.541C9.65833 13.541 9.375 13.2577 9.375 12.916V10.416C9.375 10.0743 9.65833 9.79102 10 9.79102C10.3417 9.79102 10.625 10.0743 10.625 10.416V12.916C10.625 13.2577 10.3417 13.541 10 13.541Z" fill="#D89B65"/>
</svg>
