<svg width="40" height="40" viewBox="0 0 40 40" fill="none" xmlns="http://www.w3.org/2000/svg">
<rect width="40" height="40" rx="20" fill="#FBF5F0"/>
<path d="M18.3243 28.9833C17.8243 28.9833 17.3493 28.7333 17.0243 28.2917L16.0244 26.9583C16.0244 26.9667 15.9827 26.9417 15.966 26.9417H15.6577C12.8077 26.9417 11.041 26.1667 11.041 22.325V18.9917C11.041 15.4833 13.1827 14.5667 14.9827 14.4083C15.1827 14.3833 15.416 14.375 15.6577 14.375H20.991C24.0077 14.375 25.6077 15.975 25.6077 18.9917V22.325C25.6077 22.5667 25.5993 22.8 25.566 23.025C25.416 24.8 24.4994 26.9417 20.991 26.9417H20.6577L19.6243 28.2917C19.2993 28.7333 18.8243 28.9833 18.3243 28.9833ZM15.6577 15.625C15.466 15.625 15.2827 15.6333 15.1077 15.65C13.1744 15.8167 12.291 16.875 12.291 18.9917V22.325C12.291 25.1833 13.1744 25.6917 15.6577 25.6917H15.991C16.366 25.6917 16.791 25.9 17.0243 26.2L18.0244 27.5417C18.2077 27.7917 18.441 27.7917 18.6244 27.5417L19.6243 26.2083C19.866 25.8833 20.2494 25.6917 20.6577 25.6917H20.991C23.1077 25.6917 24.166 24.8 24.3244 22.9C24.3494 22.7 24.3577 22.5167 24.3577 22.325V18.9917C24.3577 16.6667 23.316 15.625 20.991 15.625H15.6577Z" fill="#D89B65"/>
<path d="M18.3255 21.8249C17.8589 21.8249 17.4922 21.4499 17.4922 20.9915C17.4922 20.5332 17.8672 20.1582 18.3255 20.1582C18.7839 20.1582 19.1589 20.5332 19.1589 20.9915C19.1589 21.4499 18.7922 21.8249 18.3255 21.8249Z" fill="#D89B65"/>
<path d="M20.9915 21.8249C20.5249 21.8249 20.1582 21.4499 20.1582 20.9915C20.1582 20.5332 20.5332 20.1582 20.9915 20.1582C21.4499 20.1582 21.8249 20.5332 21.8249 20.9915C21.8249 21.4499 21.4499 21.8249 20.9915 21.8249Z" fill="#D89B65"/>
<path d="M15.6673 21.8249C15.2007 21.8249 14.834 21.4499 14.834 20.9915C14.834 20.5332 15.209 20.1582 15.6673 20.1582C16.1257 20.1582 16.5007 20.5332 16.5007 20.9915C16.5007 21.4499 16.1257 21.8249 15.6673 21.8249Z" fill="#D89B65"/>
<path d="M24.9497 23.5744C24.783 23.5744 24.6164 23.5077 24.4997 23.3827C24.3664 23.2493 24.308 23.0577 24.333 22.8744C24.358 22.6994 24.3664 22.516 24.3664 22.3244V18.991C24.3664 16.666 23.3247 15.6243 20.9997 15.6243H15.6664C15.4747 15.6243 15.2914 15.6327 15.1164 15.6493C14.933 15.6743 14.7414 15.6077 14.608 15.4827C14.4747 15.3493 14.3997 15.166 14.4164 14.9827C14.5664 13.1827 15.4914 11.041 18.9997 11.041H24.333C27.3497 11.041 28.9497 12.641 28.9497 15.6577V18.991C28.9497 22.4994 26.808 23.416 25.008 23.5744C24.983 23.5744 24.9664 23.5744 24.9497 23.5744ZM15.7664 14.3743H20.9914C24.008 14.3743 25.608 15.9744 25.608 18.991V22.216C27.0247 21.866 27.6914 20.8244 27.6914 18.991V15.6577C27.6914 13.3327 26.6497 12.291 24.3247 12.291H18.9914C17.158 12.291 16.1247 12.9577 15.7664 14.3743Z" fill="#D89B65"/>
</svg>
