<svg width="24" height="24" viewBox="0 0 24 24" fill="none" xmlns="http://www.w3.org/2000/svg">
<rect width="24" height="24" rx="4" fill="#D89B65"/>
<path d="M11.9993 20.9587C7.05768 20.9587 3.04102 16.942 3.04102 12.0003C3.04102 7.05866 7.05768 3.04199 11.9993 3.04199C16.941 3.04199 20.9577 7.05866 20.9577 12.0003C20.9577 16.942 16.941 20.9587 11.9993 20.9587ZM11.9993 4.29199C7.74935 4.29199 4.29102 7.75033 4.29102 12.0003C4.29102 16.2503 7.74935 19.7087 11.9993 19.7087C16.2493 19.7087 19.7077 16.2503 19.7077 12.0003C19.7077 7.75033 16.2493 4.29199 11.9993 4.29199Z" fill="white"/>
<path d="M10.8172 14.9837C10.6505 14.9837 10.4922 14.917 10.3755 14.8003L8.01719 12.442C7.77552 12.2003 7.77552 11.8003 8.01719 11.5587C8.25885 11.317 8.65885 11.317 8.90052 11.5587L10.8172 13.4753L15.1005 9.19199C15.3422 8.95033 15.7422 8.95033 15.9839 9.19199C16.2255 9.43366 16.2255 9.83366 15.9839 10.0753L11.2589 14.8003C11.1422 14.917 10.9839 14.9837 10.8172 14.9837Z" fill="white"/>
</svg>
