<svg width="42" height="27" viewBox="0 0 42 27" fill="none" xmlns="http://www.w3.org/2000/svg">
<rect x="2" y="1" width="40" height="24" rx="12" fill="#787880" fill-opacity="0.16"/>
<g filter="url(#filter0_dd_614_6234)">
<path fill-rule="evenodd" clip-rule="evenodd" d="M14.0008 24.2008C20.1864 24.2008 25.2008 19.1864 25.2008 13.0008C25.2008 6.81519 20.1864 1.80078 14.0008 1.80078C7.81519 1.80078 2.80078 6.81519 2.80078 13.0008C2.80078 19.1864 7.81519 24.2008 14.0008 24.2008Z" fill="white"/>
<path d="M14.0008 24.4008C20.2968 24.4008 25.4008 19.2968 25.4008 13.0008C25.4008 6.70473 20.2968 1.60078 14.0008 1.60078C7.70473 1.60078 2.60078 6.70473 2.60078 13.0008C2.60078 19.2968 7.70473 24.4008 14.0008 24.4008Z" stroke="black" stroke-opacity="0.04" stroke-width="0.4"/>
</g>
<defs>
<filter id="filter0_dd_614_6234" x="0.800391" y="0.600391" width="26.4012" height="26.4012" filterUnits="userSpaceOnUse" color-interpolation-filters="sRGB">
<feFlood flood-opacity="0" result="BackgroundImageFix"/>
<feColorMatrix in="SourceAlpha" type="matrix" values="0 0 0 0 0 0 0 0 0 0 0 0 0 0 0 0 0 0 127 0" result="hardAlpha"/>
<feOffset dy="0.8"/>
<feGaussianBlur stdDeviation="0.8"/>
<feColorMatrix type="matrix" values="0 0 0 0 0 0 0 0 0 0 0 0 0 0 0 0 0 0 0.2 0"/>
<feBlend mode="normal" in2="BackgroundImageFix" result="effect1_dropShadow_614_6234"/>
<feColorMatrix in="SourceAlpha" type="matrix" values="0 0 0 0 0 0 0 0 0 0 0 0 0 0 0 0 0 0 127 0" result="hardAlpha"/>
<feOffset dy="0.08"/>
<feGaussianBlur stdDeviation="0.12"/>
<feColorMatrix type="matrix" values="0 0 0 0 0 0 0 0 0 0 0 0 0 0 0 0 0 0 0.1 0"/>
<feBlend mode="normal" in2="effect1_dropShadow_614_6234" result="effect2_dropShadow_614_6234"/>
<feBlend mode="normal" in="SourceGraphic" in2="effect2_dropShadow_614_6234" result="shape"/>
</filter>
</defs>
</svg>
