<svg width="77" height="61" viewBox="0 0 77 61" fill="none" xmlns="http://www.w3.org/2000/svg">
<rect x="19.5" width="38" height="38" rx="19" fill="#F1EDE9"/>
<path d="M38.5 11.5C34.36 11.5 31 14.86 31 19C31 23.14 34.36 26.5 38.5 26.5C42.64 26.5 46 23.14 46 19" stroke="#724A26" stroke-width="1.125" stroke-miterlimit="10" stroke-linecap="round" stroke-linejoin="round"/>
<path d="M39.25 18.2516L45.4 12.1016" stroke="#724A26" stroke-width="1.125" stroke-linecap="round" stroke-linejoin="round"/>
<path d="M45.9995 15.1225V11.5H42.377" stroke="#724A26" stroke-width="1.125" stroke-linecap="round" stroke-linejoin="round"/>
<path d="M18.1693 58V50.14H15.7453V49.06H21.7453V50.14H19.3573V58H18.1693ZM22.032 58V51.532H23.124V52.72L23.004 52.552C23.156 52.184 23.388 51.912 23.7 51.736C24.012 51.552 24.392 51.46 24.84 51.46H25.236V52.516H24.672C24.216 52.516 23.848 52.66 23.568 52.948C23.288 53.228 23.148 53.628 23.148 54.148V58H22.032ZM28.1233 58.144C27.6993 58.144 27.3233 58.068 26.9953 57.916C26.6753 57.756 26.4233 57.54 26.2393 57.268C26.0553 56.988 25.9633 56.668 25.9633 56.308C25.9633 55.964 26.0353 55.656 26.1793 55.384C26.3313 55.104 26.5633 54.868 26.8753 54.676C27.1953 54.484 27.5953 54.348 28.0753 54.268L30.4753 53.872V54.808L28.3273 55.168C27.9113 55.24 27.6073 55.372 27.4153 55.564C27.2313 55.756 27.1393 55.992 27.1393 56.272C27.1393 56.536 27.2433 56.756 27.4513 56.932C27.6673 57.108 27.9353 57.196 28.2553 57.196C28.6633 57.196 29.0153 57.112 29.3113 56.944C29.6153 56.768 29.8513 56.532 30.0193 56.236C30.1953 55.94 30.2833 55.612 30.2833 55.252V53.608C30.2833 53.256 30.1513 52.972 29.8873 52.756C29.6313 52.532 29.2913 52.42 28.8673 52.42C28.4993 52.42 28.1713 52.516 27.8833 52.708C27.6033 52.892 27.3953 53.14 27.2593 53.452L26.2873 52.948C26.4073 52.652 26.5993 52.388 26.8633 52.156C27.1273 51.916 27.4353 51.728 27.7873 51.592C28.1393 51.456 28.5073 51.388 28.8913 51.388C29.3873 51.388 29.8233 51.484 30.1993 51.676C30.5753 51.86 30.8673 52.12 31.0753 52.456C31.2913 52.784 31.3993 53.168 31.3993 53.608V58H30.3073V56.776L30.5113 56.848C30.3753 57.104 30.1913 57.328 29.9593 57.52C29.7273 57.712 29.4553 57.864 29.1433 57.976C28.8313 58.088 28.4913 58.144 28.1233 58.144ZM33.1296 58V51.532H34.2216V52.792L34.0416 52.684C34.2016 52.276 34.4576 51.96 34.8096 51.736C35.1696 51.504 35.5896 51.388 36.0696 51.388C36.5336 51.388 36.9456 51.492 37.3056 51.7C37.6736 51.908 37.9616 52.196 38.1696 52.564C38.3856 52.932 38.4936 53.348 38.4936 53.812V58H37.3656V54.172C37.3656 53.812 37.3016 53.508 37.1736 53.26C37.0456 53.012 36.8616 52.82 36.6216 52.684C36.3896 52.54 36.1216 52.468 35.8176 52.468C35.5136 52.468 35.2416 52.54 35.0016 52.684C34.7696 52.82 34.5856 53.016 34.4496 53.272C34.3136 53.52 34.2456 53.82 34.2456 54.172V58H33.1296ZM42.4066 58.144C41.7586 58.144 41.1946 57.984 40.7146 57.664C40.2346 57.344 39.8946 56.912 39.6946 56.368L40.5826 55.936C40.7666 56.32 41.0186 56.624 41.3386 56.848C41.6586 57.072 42.0146 57.184 42.4066 57.184C42.7586 57.184 43.0506 57.1 43.2826 56.932C43.5146 56.764 43.6306 56.544 43.6306 56.272C43.6306 56.08 43.5746 55.928 43.4626 55.816C43.3586 55.696 43.2306 55.604 43.0786 55.54C42.9266 55.468 42.7866 55.416 42.6586 55.384L41.6866 55.108C41.1026 54.94 40.6746 54.7 40.4026 54.388C40.1386 54.076 40.0066 53.712 40.0066 53.296C40.0066 52.912 40.1026 52.58 40.2946 52.3C40.4946 52.012 40.7626 51.788 41.0986 51.628C41.4426 51.468 41.8266 51.388 42.2506 51.388C42.8186 51.388 43.3266 51.532 43.7746 51.82C44.2306 52.108 44.5546 52.512 44.7466 53.032L43.8346 53.452C43.6906 53.116 43.4746 52.852 43.1866 52.66C42.8986 52.46 42.5746 52.36 42.2146 52.36C41.8866 52.36 41.6266 52.444 41.4346 52.612C41.2426 52.772 41.1466 52.976 41.1466 53.224C41.1466 53.408 41.1946 53.56 41.2906 53.68C41.3866 53.792 41.5026 53.88 41.6386 53.944C41.7746 54 41.9066 54.048 42.0346 54.088L43.0906 54.4C43.6186 54.552 44.0266 54.788 44.3146 55.108C44.6106 55.428 44.7586 55.812 44.7586 56.26C44.7586 56.62 44.6586 56.944 44.4586 57.232C44.2586 57.52 43.9826 57.744 43.6306 57.904C43.2786 58.064 42.8706 58.144 42.4066 58.144ZM46.9035 58V52.6H45.6675V51.532H46.9035V51.076C46.9035 50.612 47.0035 50.22 47.2035 49.9C47.4115 49.58 47.6835 49.336 48.0195 49.168C48.3635 49 48.7435 48.916 49.1595 48.916C49.2475 48.916 49.3435 48.924 49.4475 48.94C49.5595 48.948 49.6515 48.96 49.7235 48.976V49.972C49.6595 49.956 49.5835 49.948 49.4955 49.948C49.4075 49.94 49.3395 49.936 49.2915 49.936C48.9235 49.936 48.6195 50.024 48.3795 50.2C48.1475 50.376 48.0315 50.668 48.0315 51.076V51.532H49.5675V52.6H48.0315V58H46.9035ZM53.6603 58.144C53.0363 58.144 52.4803 57.996 51.9923 57.7C51.5043 57.404 51.1203 57 50.8403 56.488C50.5603 55.968 50.4203 55.388 50.4203 54.748C50.4203 54.1 50.5563 53.524 50.8283 53.02C51.1083 52.516 51.4843 52.12 51.9563 51.832C52.4363 51.536 52.9723 51.388 53.5643 51.388C54.0443 51.388 54.4683 51.476 54.8363 51.652C55.2123 51.82 55.5283 52.052 55.7843 52.348C56.0483 52.636 56.2483 52.968 56.3843 53.344C56.5283 53.712 56.6003 54.096 56.6003 54.496C56.6003 54.584 56.5923 54.684 56.5763 54.796C56.5683 54.9 56.5563 55 56.5403 55.096H51.2363V54.136H55.8923L55.3643 54.568C55.4363 54.152 55.3963 53.78 55.2443 53.452C55.0923 53.124 54.8683 52.864 54.5723 52.672C54.2763 52.48 53.9403 52.384 53.5643 52.384C53.1883 52.384 52.8443 52.48 52.5323 52.672C52.2203 52.864 51.9763 53.14 51.8003 53.5C51.6323 53.852 51.5643 54.272 51.5963 54.76C51.5643 55.232 51.6363 55.648 51.8123 56.008C51.9963 56.36 52.2523 56.636 52.5803 56.836C52.9163 57.028 53.2803 57.124 53.6723 57.124C54.1043 57.124 54.4683 57.024 54.7643 56.824C55.0603 56.624 55.3003 56.368 55.4843 56.056L56.4203 56.536C56.2923 56.832 56.0923 57.104 55.8203 57.352C55.5563 57.592 55.2403 57.784 54.8723 57.928C54.5123 58.072 54.1083 58.144 53.6603 58.144ZM58.0554 58V51.532H59.1474V52.72L59.0274 52.552C59.1794 52.184 59.4114 51.912 59.7234 51.736C60.0354 51.552 60.4154 51.46 60.8634 51.46H61.2594V52.516H60.6954C60.2394 52.516 59.8714 52.66 59.5914 52.948C59.3114 53.228 59.1714 53.628 59.1714 54.148V58H58.0554Z" fill="#724A26"/>
</svg>
