<svg width="49" height="18" viewBox="0 0 49 18" fill="none" xmlns="http://www.w3.org/2000/svg">
<rect y="0.5" width="49" height="17" rx="8.5" fill="#FBF5F0"/>
<path d="M8.8 13.5L6.11 6.05H7.16L9.44 12.6H9.23L11.51 6.05H12.56L9.88 13.5H8.8ZM15.3719 13.62C14.8519 13.62 14.3885 13.4967 13.9819 13.25C13.5752 13.0033 13.2552 12.6667 13.0219 12.24C12.7885 11.8067 12.6719 11.3233 12.6719 10.79C12.6719 10.25 12.7852 9.77 13.0119 9.35C13.2452 8.93 13.5585 8.6 13.9519 8.36C14.3519 8.11333 14.7985 7.99 15.2919 7.99C15.6919 7.99 16.0452 8.06333 16.3519 8.21C16.6652 8.35 16.9285 8.54333 17.1419 8.79C17.3619 9.03 17.5285 9.30667 17.6419 9.62C17.7619 9.92667 17.8219 10.2467 17.8219 10.58C17.8219 10.6533 17.8152 10.7367 17.8019 10.83C17.7952 10.9167 17.7852 11 17.7719 11.08H13.3519V10.28H17.2319L16.7919 10.64C16.8519 10.2933 16.8185 9.98333 16.6919 9.71C16.5652 9.43667 16.3785 9.22 16.1319 9.06C15.8852 8.9 15.6052 8.82 15.2919 8.82C14.9785 8.82 14.6919 8.9 14.4319 9.06C14.1719 9.22 13.9685 9.45 13.8219 9.75C13.6819 10.0433 13.6252 10.3933 13.6519 10.8C13.6252 11.1933 13.6852 11.54 13.8319 11.84C13.9852 12.1333 14.1985 12.3633 14.4719 12.53C14.7519 12.69 15.0552 12.77 15.3819 12.77C15.7419 12.77 16.0452 12.6867 16.2919 12.52C16.5385 12.3533 16.7385 12.14 16.8919 11.88L17.6719 12.28C17.5652 12.5267 17.3985 12.7533 17.1719 12.96C16.9519 13.16 16.6885 13.32 16.3819 13.44C16.0819 13.56 15.7452 13.62 15.3719 13.62ZM19.0345 13.5V8.11H19.9445V9.1L19.8445 8.96C19.9711 8.65333 20.1645 8.42667 20.4245 8.28C20.6845 8.12667 21.0011 8.05 21.3745 8.05H21.7045V8.93H21.2345C20.8545 8.93 20.5478 9.05 20.3145 9.29C20.0811 9.52333 19.9645 9.85667 19.9645 10.29V13.5H19.0345ZM22.5305 13.5V8.11H23.4605V13.5H22.5305ZM22.5305 7.25V6.05H23.4605V7.25H22.5305ZM25.4736 13.5V9H24.4436V8.11H25.4736V7.73C25.4736 7.34333 25.5569 7.01667 25.7236 6.75C25.8969 6.48333 26.1236 6.28 26.4036 6.14C26.6903 6 27.0069 5.93 27.3536 5.93C27.4269 5.93 27.5069 5.93667 27.5936 5.95C27.6869 5.95667 27.7636 5.96667 27.8236 5.98V6.81C27.7703 6.79667 27.7069 6.79 27.6336 6.79C27.5603 6.78333 27.5036 6.78 27.4636 6.78C27.1569 6.78 26.9036 6.85333 26.7036 7C26.5103 7.14667 26.4136 7.39 26.4136 7.73V8.11H29.2136V9H26.4136V13.5H25.4736ZM28.6336 13.5V8.11H29.5736V13.5H28.6336ZM33.3406 13.62C32.8206 13.62 32.3573 13.4967 31.9506 13.25C31.544 13.0033 31.224 12.6667 30.9906 12.24C30.7573 11.8067 30.6406 11.3233 30.6406 10.79C30.6406 10.25 30.754 9.77 30.9806 9.35C31.214 8.93 31.5273 8.6 31.9206 8.36C32.3206 8.11333 32.7673 7.99 33.2606 7.99C33.6606 7.99 34.014 8.06333 34.3206 8.21C34.634 8.35 34.8973 8.54333 35.1106 8.79C35.3306 9.03 35.4973 9.30667 35.6106 9.62C35.7306 9.92667 35.7906 10.2467 35.7906 10.58C35.7906 10.6533 35.784 10.7367 35.7706 10.83C35.764 10.9167 35.754 11 35.7406 11.08H31.3206V10.28H35.2006L34.7606 10.64C34.8206 10.2933 34.7873 9.98333 34.6606 9.71C34.534 9.43667 34.3473 9.22 34.1006 9.06C33.854 8.9 33.574 8.82 33.2606 8.82C32.9473 8.82 32.6606 8.9 32.4006 9.06C32.1406 9.22 31.9373 9.45 31.7906 9.75C31.6506 10.0433 31.594 10.3933 31.6206 10.8C31.594 11.1933 31.654 11.54 31.8006 11.84C31.954 12.1333 32.1673 12.3633 32.4406 12.53C32.7206 12.69 33.024 12.77 33.3506 12.77C33.7106 12.77 34.014 12.6867 34.2606 12.52C34.5073 12.3533 34.7073 12.14 34.8606 11.88L35.6406 12.28C35.534 12.5267 35.3673 12.7533 35.1406 12.96C34.9206 13.16 34.6573 13.32 34.3506 13.44C34.0506 13.56 33.714 13.62 33.3406 13.62ZM39.4532 13.62C38.9465 13.62 38.4899 13.4967 38.0832 13.25C37.6832 13.0033 37.3665 12.6667 37.1332 12.24C36.8999 11.8133 36.7832 11.3367 36.7832 10.81C36.7832 10.27 36.8999 9.79 37.1332 9.37C37.3665 8.94333 37.6832 8.60667 38.0832 8.36C38.4899 8.11333 38.9465 7.99 39.4532 7.99C39.8999 7.99 40.2965 8.08667 40.6432 8.28C40.9899 8.46667 41.2632 8.72 41.4632 9.04L41.3132 9.27V5.93H42.2532V13.5H41.3432V12.35L41.4632 12.51C41.2765 12.8633 41.0032 13.1367 40.6432 13.33C40.2899 13.5233 39.8932 13.62 39.4532 13.62ZM39.5332 12.72C39.8732 12.72 40.1765 12.6367 40.4432 12.47C40.7099 12.3033 40.9199 12.0767 41.0732 11.79C41.2332 11.4967 41.3132 11.17 41.3132 10.81C41.3132 10.4433 41.2332 10.1167 41.0732 9.83C40.9199 9.53667 40.7099 9.30667 40.4432 9.14C40.1765 8.97333 39.8732 8.89 39.5332 8.89C39.1999 8.89 38.8965 8.97667 38.6232 9.15C38.3565 9.31667 38.1465 9.54333 37.9932 9.83C37.8399 10.11 37.7632 10.4367 37.7632 10.81C37.7632 11.17 37.8399 11.4967 37.9932 11.79C38.1465 12.0767 38.3565 12.3033 38.6232 12.47C38.8899 12.6367 39.1932 12.72 39.5332 12.72Z" fill="#D89B65"/>
</svg>
