<svg width="69" height="61" viewBox="0 0 69 61" fill="none" xmlns="http://www.w3.org/2000/svg">
<rect x="15.5" width="38" height="38" rx="19" fill="#F1EDE9"/>
<path d="M32.4902 18.7578L34.4102 20.6778L36.3302 18.7578" stroke="#724A26" stroke-width="1.125" stroke-miterlimit="10" stroke-linecap="round" stroke-linejoin="round"/>
<path d="M34.4102 13V20.6275" stroke="#724A26" stroke-width="1.125" stroke-miterlimit="10" stroke-linecap="round" stroke-linejoin="round"/>
<path d="M40.5 19.1328C40.5 22.4478 38.25 25.1328 34.5 25.1328C30.75 25.1328 28.5 22.4478 28.5 19.1328" stroke="#724A26" stroke-width="1.125" stroke-miterlimit="10" stroke-linecap="round" stroke-linejoin="round"/>
<path d="M9.3607 58L6.8527 49.06H8.0887L10.1887 56.932H9.9007L12.0847 49.06H13.3207L15.4927 56.932H15.1927L17.3047 49.06H18.5407L16.0327 58H14.7247L12.5407 50.164H12.8527L10.6687 58H9.3607ZM19.5378 58V51.532H20.6538V58H19.5378ZM19.5378 50.5V49.06H20.6538V50.5H19.5378ZM25.0135 58.072C24.3815 58.072 23.8935 57.892 23.5495 57.532C23.2135 57.172 23.0455 56.664 23.0455 56.008V52.6H21.8695V51.532H22.1095C22.3975 51.532 22.6255 51.444 22.7935 51.268C22.9615 51.092 23.0455 50.86 23.0455 50.572V50.044H24.1615V51.532H25.6135V52.6H24.1615V55.972C24.1615 56.188 24.1935 56.376 24.2575 56.536C24.3295 56.696 24.4455 56.824 24.6055 56.92C24.7655 57.008 24.9775 57.052 25.2415 57.052C25.2975 57.052 25.3655 57.048 25.4455 57.04C25.5335 57.032 25.6135 57.024 25.6855 57.016V58C25.5815 58.024 25.4655 58.04 25.3375 58.048C25.2095 58.064 25.1015 58.072 25.0135 58.072ZM27.1433 58V48.916H28.2593V52.792L28.0553 52.684C28.2153 52.276 28.4713 51.96 28.8233 51.736C29.1833 51.504 29.6033 51.388 30.0833 51.388C30.5473 51.388 30.9593 51.492 31.3193 51.7C31.6873 51.908 31.9753 52.196 32.1833 52.564C32.3993 52.932 32.5073 53.348 32.5073 53.812V58H31.3793V54.172C31.3793 53.812 31.3113 53.508 31.1753 53.26C31.0473 53.012 30.8673 52.82 30.6353 52.684C30.4033 52.54 30.1353 52.468 29.8313 52.468C29.5353 52.468 29.2673 52.54 29.0273 52.684C28.7873 52.82 28.5993 53.016 28.4633 53.272C28.3273 53.52 28.2593 53.82 28.2593 54.172V58H27.1433ZM37.0442 58.144C36.4362 58.144 35.8882 57.996 35.4002 57.7C34.9202 57.404 34.5402 57 34.2602 56.488C33.9802 55.976 33.8402 55.404 33.8402 54.772C33.8402 54.124 33.9802 53.548 34.2602 53.044C34.5402 52.532 34.9202 52.128 35.4002 51.832C35.8882 51.536 36.4362 51.388 37.0442 51.388C37.5802 51.388 38.0562 51.504 38.4722 51.736C38.8882 51.96 39.2162 52.264 39.4562 52.648L39.2762 52.924V48.916H40.4042V58H39.3122V56.62L39.4562 56.812C39.2322 57.236 38.9042 57.564 38.4722 57.796C38.0482 58.028 37.5722 58.144 37.0442 58.144ZM37.1402 57.064C37.5482 57.064 37.9122 56.964 38.2322 56.764C38.5522 56.564 38.8042 56.292 38.9882 55.948C39.1802 55.596 39.2762 55.204 39.2762 54.772C39.2762 54.332 39.1802 53.94 38.9882 53.596C38.8042 53.244 38.5522 52.968 38.2322 52.768C37.9122 52.568 37.5482 52.468 37.1402 52.468C36.7402 52.468 36.3762 52.572 36.0482 52.78C35.7282 52.98 35.4762 53.252 35.2922 53.596C35.1082 53.932 35.0162 54.324 35.0162 54.772C35.0162 55.204 35.1082 55.596 35.2922 55.948C35.4762 56.292 35.7282 56.564 36.0482 56.764C36.3682 56.964 36.7322 57.064 37.1402 57.064ZM42.1316 58V51.532H43.2236V52.72L43.1036 52.552C43.2556 52.184 43.4876 51.912 43.7996 51.736C44.1116 51.552 44.4916 51.46 44.9396 51.46H45.3356V52.516H44.7716C44.3156 52.516 43.9476 52.66 43.6676 52.948C43.3876 53.228 43.2476 53.628 43.2476 54.148V58H42.1316ZM48.2229 58.144C47.7989 58.144 47.4229 58.068 47.0949 57.916C46.7749 57.756 46.5229 57.54 46.3389 57.268C46.1549 56.988 46.0629 56.668 46.0629 56.308C46.0629 55.964 46.1349 55.656 46.2789 55.384C46.4309 55.104 46.6629 54.868 46.9749 54.676C47.2949 54.484 47.6949 54.348 48.1749 54.268L50.5749 53.872V54.808L48.4269 55.168C48.0109 55.24 47.7069 55.372 47.5149 55.564C47.3309 55.756 47.2389 55.992 47.2389 56.272C47.2389 56.536 47.3429 56.756 47.5509 56.932C47.7669 57.108 48.0349 57.196 48.3549 57.196C48.7629 57.196 49.1149 57.112 49.4109 56.944C49.7149 56.768 49.9509 56.532 50.1189 56.236C50.2949 55.94 50.3829 55.612 50.3829 55.252V53.608C50.3829 53.256 50.2509 52.972 49.9869 52.756C49.7309 52.532 49.3909 52.42 48.9669 52.42C48.5989 52.42 48.2709 52.516 47.9829 52.708C47.7029 52.892 47.4949 53.14 47.3589 53.452L46.3869 52.948C46.5069 52.652 46.6989 52.388 46.9629 52.156C47.2269 51.916 47.5349 51.728 47.8869 51.592C48.2389 51.456 48.6069 51.388 48.9909 51.388C49.4869 51.388 49.9229 51.484 50.2989 51.676C50.6749 51.86 50.9669 52.12 51.1749 52.456C51.3909 52.784 51.4989 53.168 51.4989 53.608V58H50.4069V56.776L50.6109 56.848C50.4749 57.104 50.2909 57.328 50.0589 57.52C49.8269 57.712 49.5549 57.864 49.2429 57.976C48.9309 58.088 48.5909 58.144 48.2229 58.144ZM54.7172 58L52.4972 51.532H53.7332L55.4972 56.944L55.0652 56.932L56.7932 51.532H57.8492L59.5772 56.932L59.1452 56.944L60.9212 51.532H62.1452L59.9252 58H58.8572L57.1532 52.6H57.4892L55.7852 58H54.7172Z" fill="#724A26"/>
</svg>
